<svg width="136" height="16" viewBox="0 0 136 16" fill="none" xmlns="http://www.w3.org/2000/svg">
<path d="M10.7112 7.89353H13.7774V13.7774C12.9901 14.3713 12.0785 14.8271 11.0427 15.1448C10.0068 15.4625 8.96395 15.6213 7.91425 15.6213C6.40874 15.6213 5.05517 15.3036 3.85353 14.6683C2.65189 14.0191 1.70578 13.1283 1.01518 11.9957C0.338393 10.8493 0 9.55787 0 8.12143C0 6.68498 0.338393 5.40047 1.01518 4.26789C1.70578 3.1215 2.6588 2.23063 3.87425 1.59528C5.0897 0.946119 6.45709 0.621538 7.9764 0.621538C9.2471 0.621538 10.4004 0.835623 11.4363 1.26379C12.4722 1.69196 13.3423 2.3135 14.0468 3.12841L11.8921 5.11733C10.8562 4.02618 9.60621 3.48061 8.14214 3.48061C7.21674 3.48061 6.39493 3.67398 5.67671 4.06071C4.95849 4.44745 4.39911 4.99302 3.99856 5.69743C3.59801 6.40184 3.39774 7.20984 3.39774 8.12143C3.39774 9.0192 3.59801 9.82029 3.99856 10.5247C4.39911 11.2291 4.95158 11.7816 5.65599 12.1821C6.37421 12.5689 7.18912 12.7622 8.10071 12.7622C9.06754 12.7622 9.9377 12.5551 10.7112 12.1407V7.89353Z" fill="#F0FBF8"/>
<path d="M19.7542 5.69743C20.1409 5.15876 20.6589 4.75131 21.3081 4.47507C21.971 4.19883 22.7307 4.06071 23.587 4.06071V7.04409C23.2279 7.01647 22.9862 7.00266 22.8619 7.00266C21.9365 7.00266 21.2114 7.26509 20.6865 7.78994C20.1617 8.30098 19.8992 9.07445 19.8992 10.1103V15.3727H16.6672V4.22646H19.7542V5.69743Z" fill="#F0FBF8"/>
<path d="M30.7114 15.5384C29.5374 15.5384 28.4808 15.2967 27.5416 14.8133C26.6162 14.3161 25.891 13.6324 25.3662 12.7622C24.8413 11.8921 24.5789 10.9045 24.5789 9.79958C24.5789 8.69462 24.8413 7.70707 25.3662 6.83691C25.891 5.96676 26.6162 5.28998 27.5416 4.80656C28.4808 4.30933 29.5374 4.06071 30.7114 4.06071C31.8854 4.06071 32.9351 4.30933 33.8605 4.80656C34.7859 5.28998 35.5111 5.96676 36.0359 6.83691C36.5608 7.70707 36.8232 8.69462 36.8232 9.79958C36.8232 10.9045 36.5608 11.8921 36.0359 12.7622C35.5111 13.6324 34.7859 14.3161 33.8605 14.8133C32.9351 15.2967 31.8854 15.5384 30.7114 15.5384ZM30.7114 12.8865C31.5401 12.8865 32.2169 12.6103 32.7418 12.0578C33.2804 11.4915 33.5498 10.7388 33.5498 9.79958C33.5498 8.86037 33.2804 8.11452 32.7418 7.56204C32.2169 6.99575 31.5401 6.71261 30.7114 6.71261C29.8827 6.71261 29.199 6.99575 28.6603 7.56204C28.1217 8.11452 27.8523 8.86037 27.8523 9.79958C27.8523 10.7388 28.1217 11.4915 28.6603 12.0578C29.199 12.6103 29.8827 12.8865 30.7114 12.8865Z" fill="#F0FBF8"/>
<path d="M56.5803 4.22646L52.5403 15.3727H49.4326L46.9258 8.45291L44.336 15.3727H41.2283L37.2091 4.22646H40.2546L42.8858 11.7678L45.6205 4.22646H48.3553L51.0072 11.7678L53.7212 4.22646H56.5803Z" fill="#F0FBF8"/>
<path d="M65.5755 14.834C65.2578 15.0688 64.8641 15.2484 64.3945 15.3727C63.9387 15.4832 63.4553 15.5384 62.9443 15.5384C61.6183 15.5384 60.5893 15.2 59.8573 14.5233C59.1391 13.8465 58.78 12.852 58.78 11.5399V6.96122H57.0604V4.47507H58.78V1.76102H62.012V4.47507H64.7882V6.96122H62.012V11.4984C62.012 11.9681 62.1294 12.3341 62.3642 12.5965C62.6128 12.8451 62.9581 12.9694 63.4001 12.9694C63.9111 12.9694 64.3462 12.8313 64.7053 12.5551L65.5755 14.834Z" fill="#F0FBF8"/>
<path d="M74.1645 4.06071C75.5457 4.06071 76.6575 4.47507 77.5001 5.30379C78.3564 6.13251 78.7846 7.36177 78.7846 8.99158V15.3727H75.5526V9.48881C75.5526 8.60484 75.3592 7.94878 74.9725 7.52061C74.5858 7.07862 74.0264 6.85763 73.2943 6.85763C72.4794 6.85763 71.8303 7.11315 71.3469 7.6242C70.8634 8.12142 70.6217 8.86727 70.6217 9.86173V15.3727H67.3897V0H70.6217V5.38666C71.0499 4.95849 71.5678 4.63391 72.1756 4.41292C72.7833 4.17811 73.4463 4.06071 74.1645 4.06071Z" fill="#F0FBF8"/>
<path d="M95.9889 4.06071C97.3839 4.06071 98.4888 4.47507 99.3037 5.30379C100.132 6.11869 100.547 7.34796 100.547 8.99158V15.3727H97.3148V9.48881C97.3148 8.60484 97.1284 7.94878 96.7554 7.52061C96.3963 7.07862 95.8784 6.85763 95.2016 6.85763C94.4419 6.85763 93.8411 7.10625 93.3991 7.60348C92.9572 8.0869 92.7362 8.81202 92.7362 9.77886V15.3727H89.5042V9.48881C89.5042 7.73469 88.7998 6.85763 87.3909 6.85763C86.6451 6.85763 86.0512 7.10625 85.6092 7.60348C85.1672 8.0869 84.9462 8.81202 84.9462 9.77886V15.3727H81.7142V4.22646H84.8012V5.51097C85.2156 5.04136 85.7197 4.68225 86.3136 4.43364C86.9213 4.18502 87.5843 4.06071 88.3025 4.06071C89.0898 4.06071 89.8011 4.21955 90.4365 4.53723C91.0718 4.84109 91.5829 5.28998 91.9696 5.88389C92.4254 5.30379 92.9986 4.8549 93.6892 4.53723C94.3936 4.21955 95.1602 4.06071 95.9889 4.06071Z" fill="#F0FBF8"/>
<path d="M107.94 4.06071C109.666 4.06071 110.992 4.47507 111.917 5.30379C112.843 6.11869 113.306 7.35486 113.306 9.0123V15.3727H110.281V13.9846C109.673 15.0205 108.54 15.5384 106.883 15.5384C106.027 15.5384 105.281 15.3934 104.645 15.1034C104.024 14.8133 103.547 14.4128 103.216 13.9017C102.884 13.3907 102.719 12.8106 102.719 12.1614C102.719 11.1255 103.105 10.3106 103.879 9.71671C104.666 9.12279 105.875 8.82583 107.504 8.82583H110.074C110.074 8.12142 109.859 7.58276 109.431 7.20984C109.003 6.8231 108.361 6.62973 107.504 6.62973C106.911 6.62973 106.324 6.72642 105.743 6.91979C105.177 7.09934 104.694 7.34796 104.293 7.66563L103.133 5.40738C103.741 4.97921 104.466 4.64772 105.308 4.41292C106.165 4.17811 107.042 4.06071 107.94 4.06071ZM107.691 13.3631C108.243 13.3631 108.734 13.2388 109.162 12.9901C109.59 12.7277 109.894 12.3479 110.074 11.8507V10.7112H107.857C106.531 10.7112 105.868 11.1462 105.868 12.0164C105.868 12.4308 106.027 12.7622 106.344 13.0109C106.676 13.2457 107.125 13.3631 107.691 13.3631Z" fill="#F0FBF8"/>
<path d="M123.42 14.834C123.102 15.0688 122.708 15.2484 122.239 15.3727C121.783 15.4832 121.3 15.5384 120.789 15.5384C119.463 15.5384 118.434 15.2 117.702 14.5233C116.983 13.8465 116.624 12.852 116.624 11.5399V6.96122H114.905V4.47507H116.624V1.76102H119.856V4.47507H122.632V6.96122H119.856V11.4984C119.856 11.9681 119.974 12.3341 120.208 12.5965C120.457 12.8451 120.802 12.9694 121.244 12.9694C121.755 12.9694 122.19 12.8313 122.55 12.5551L123.42 14.834Z" fill="#F0FBF8"/>
<path d="M135.808 9.84101C135.808 9.88245 135.788 10.1725 135.746 10.7112H127.314C127.466 11.4018 127.825 11.9473 128.391 12.3479C128.958 12.7484 129.662 12.9487 130.505 12.9487C131.085 12.9487 131.596 12.8658 132.038 12.7001C132.494 12.5205 132.915 12.2443 133.302 11.8714L135.021 13.736C133.971 14.9376 132.438 15.5384 130.422 15.5384C129.165 15.5384 128.053 15.2967 127.086 14.8133C126.119 14.3161 125.373 13.6324 124.849 12.7622C124.324 11.8921 124.061 10.9045 124.061 9.79958C124.061 8.70843 124.317 7.72779 124.828 6.85763C125.353 5.97367 126.064 5.28998 126.962 4.80656C127.873 4.30933 128.889 4.06071 130.007 4.06071C131.099 4.06071 132.086 4.29552 132.97 4.76512C133.854 5.23473 134.545 5.91151 135.042 6.79548C135.553 7.66563 135.808 8.68081 135.808 9.84101ZM130.028 6.50543C129.296 6.50543 128.681 6.71261 128.184 7.12696C127.687 7.54132 127.383 8.10761 127.273 8.82583H132.763C132.652 8.12142 132.349 7.56204 131.851 7.14768C131.354 6.71951 130.746 6.50543 130.028 6.50543Z" fill="#F0FBF8"/>
</svg>
