<svg width="23" height="23" viewBox="0 0 23 23" fill="none" xmlns="http://www.w3.org/2000/svg">
<path fill-rule="evenodd" clip-rule="evenodd" d="M7 1C7.55228 1 8 1.44772 8 2V3H14V2C14 1.44772 14.4477 1 15 1C15.5523 1 16 1.44772 16 2V3H18C19.6569 3 21 4.34315 21 6V18C21 19.6569 19.6569 21 18 21H4C2.34315 21 1 19.6569 1 18V6C1 4.34315 2.34315 3 4 3H6V2C6 1.44772 6.44772 1 7 1ZM6 5H4C3.44772 5 3 5.44772 3 6V18C3 18.5523 3.44772 19 4 19H18C18.5523 19 19 18.5523 19 18V6C19 5.44772 18.5523 5 18 5H16V6C16 6.55228 15.5523 7 15 7C14.4477 7 14 6.55228 14 6V5H8V6C8 6.55228 7.55228 7 7 7C6.44772 7 6 6.55228 6 6V5ZM5 10C5 9.44772 5.44772 9 6 9H16C16.5523 9 17 9.44772 17 10C17 10.5523 16.5523 11 16 11H6C5.44772 11 5 10.5523 5 10Z" fill="#94A3B8"/>
</svg>
