<svg width="23" height="23" viewBox="0 0 23 23" fill="none" xmlns="http://www.w3.org/2000/svg">
<path fill-rule="evenodd" clip-rule="evenodd" d="M10.2929 1.29289C10.6834 0.902369 11.3166 0.902369 11.7071 1.29289L20.7071 10.2929C21.0976 10.6834 21.0976 11.3166 20.7071 11.7071C20.3166 12.0976 19.6834 12.0976 19.2929 11.7071L19 11.4142V19C19 20.1046 18.1046 21 17 21H5C3.89543 21 3 20.1046 3 19V11.4142L2.70711 11.7071C2.31658 12.0976 1.68342 12.0976 1.29289 11.7071C0.902369 11.3166 0.902369 10.6834 1.29289 10.2929L10.2929 1.29289ZM5 9.41421V19H8V15C8 13.8954 8.89543 13 10 13H12C13.1046 13 14 13.8954 14 15V19H17V9.41421L11 3.41421L5 9.41421ZM12 19V15H10V19H12Z" fill="#94A3B8"/>
</svg>
