<svg width="23" height="23" viewBox="0 0 23 23" fill="none" xmlns="http://www.w3.org/2000/svg">
<path fill-rule="evenodd" clip-rule="evenodd" d="M1 4C1 2.34315 2.34315 1 4 1H7.27924C8.1401 1 8.90438 1.55086 9.17661 2.36755L10.6744 6.86098C10.9892 7.80521 10.5617 8.83718 9.67148 9.28229L8.31494 9.96057C9.20155 11.5092 10.4908 12.7984 12.0394 13.6851L12.7177 12.3285C13.1628 11.4383 14.1948 11.0108 15.139 11.3256L19.6325 12.8234C20.4491 13.0956 21 13.8599 21 14.7208V18C21 19.6569 19.6569 21 18 21H17C8.16344 21 1 13.8366 1 5V4ZM4 3C3.44772 3 3 3.44772 3 4V5C3 12.732 9.26801 19 17 19H18C18.5523 19 19 18.5523 19 18V14.7208L14.5066 13.2229L13.3779 15.4802C13.1379 15.9602 12.5618 16.1652 12.0725 15.9446C9.40543 14.7421 7.25786 12.5946 6.05538 9.92752C5.83479 9.43825 6.03975 8.86209 6.51979 8.62207L8.77705 7.49344L7.27924 3H4Z" fill="#94A3B8"/>
</svg>
