<svg width="23" height="23" viewBox="0 0 23 23" fill="none" xmlns="http://www.w3.org/2000/svg">
<path d="M11 1C8.79085 1 6.99999 2.79086 6.99999 4.99999C6.99999 7.20913 8.79085 8.99999 11 8.99999C13.2091 8.99999 15 7.20913 15 4.99999C15 2.79086 13.2091 1 11 1ZM8.99999 4.99999C8.99999 3.89543 9.89542 3 11 3C12.1046 3 13 3.89543 13 4.99999C13 6.10456 12.1046 6.99999 11 6.99999C9.89542 6.99999 8.99999 6.10456 8.99999 4.99999ZM16 11L5.99996 11C4.34312 11 3 12.3432 3 14C3 16.2321 3.91794 18.0205 5.42429 19.2296C6.90683 20.4196 8.89384 21 11 21C13.1061 21 15.0931 20.4196 16.5757 19.2296C18.082 18.0205 19 16.2321 19 14C19 12.3431 17.6568 11 16 11ZM5.99996 13L16 13C16.5523 13 17 13.4477 17 14C17 15.6338 16.3509 16.8454 15.3238 17.6699C14.2728 18.5134 12.7598 19 11 19C9.24015 19 7.72716 18.5134 6.6762 17.6699C5.64906 16.8454 5 15.6338 5 14C5 13.4477 5.44774 13 5.99996 13Z" fill="#94A3B8"/>
</svg>
