<svg width="29" height="27" viewBox="0 0 29 27" fill="none" xmlns="http://www.w3.org/2000/svg">
<path d="M14.9406 3.28119C18.3816 3.28119 18.7894 3.2933 20.1484 3.35162C20.9655 3.36055 21.7748 3.50163 22.5409 3.76864C23.1009 3.96241 23.6074 4.27189 24.023 4.67421C24.4514 5.06449 24.7809 5.54017 24.9872 6.06613C25.2715 6.78558 25.4217 7.54565 25.4313 8.313C25.4933 9.58938 25.5062 9.97229 25.5062 13.204C25.5062 16.4356 25.4933 16.8185 25.4313 18.0949C25.4217 18.8623 25.2715 19.6223 24.9872 20.3418C24.7727 20.8639 24.4443 21.338 24.0229 21.7337C23.6016 22.1294 23.0968 22.4379 22.5409 22.6393C21.7748 22.9063 20.9655 23.0474 20.1484 23.0563C18.7894 23.1146 18.3816 23.1267 14.9406 23.1267C11.4996 23.1267 11.0918 23.1146 9.73276 23.0563C8.91569 23.0474 8.10638 22.9063 7.34032 22.6393C6.78029 22.4455 6.27378 22.136 5.85822 21.7337C5.42984 21.3434 5.10031 20.8677 4.89398 20.3418C4.60967 19.6223 4.45946 18.8623 4.44994 18.0949C4.38784 16.8185 4.37496 16.4356 4.37496 13.204C4.37496 9.97229 4.38784 9.58938 4.44994 8.313C4.45946 7.54565 4.60967 6.78558 4.89398 6.06613C5.10031 5.54017 5.42984 5.06449 5.85822 4.67421C6.27378 4.27189 6.78029 3.96241 7.34032 3.76864C8.10638 3.50163 8.91569 3.36055 9.73276 3.35162C11.0918 3.2933 11.4996 3.28119 14.9406 3.28119ZM14.9406 1.10034C11.441 1.10034 11.0016 1.11465 9.62731 1.17296C8.55831 1.19371 7.50071 1.38381 6.4991 1.73523C5.64211 2.04681 4.86399 2.52327 4.21469 3.13401C3.56539 3.74475 3.05927 4.47627 2.72883 5.28159C2.35464 6.22226 2.15223 7.21551 2.13014 8.21947C2.06804 9.50465 2.05281 9.91728 2.05281 13.204C2.05281 16.4906 2.06804 16.9033 2.13014 18.194C2.15223 19.1979 2.35464 20.1912 2.72883 21.1318C3.0606 21.9367 3.56793 22.6674 4.21824 23.2772C4.86855 23.887 5.64746 24.3624 6.50495 24.6727C7.50657 25.0241 8.56417 25.2142 9.63317 25.235C11.0016 25.2933 11.441 25.3076 14.9406 25.3076C18.4402 25.3076 18.8796 25.2933 20.2539 25.235C21.3229 25.2142 22.3805 25.0241 23.3821 24.6727C24.2391 24.3611 25.0172 23.8847 25.6665 23.2739C26.3158 22.6632 26.8219 21.9317 27.1524 21.1263C27.5266 20.1857 27.729 19.1924 27.7511 18.1885C27.8131 16.9033 27.8284 16.4906 27.8284 13.204C27.8284 9.91728 27.8131 9.50466 27.7511 8.21397C27.729 7.21001 27.5266 6.21676 27.1524 5.27609C26.8206 4.47125 26.3133 3.74047 25.663 3.13068C25.0126 2.52089 24.2337 2.04556 23.3762 1.73523C22.3746 1.38381 21.317 1.19371 20.248 1.17296C18.8796 1.11465 18.4402 1.10034 14.9406 1.10034Z" fill="white"/>
<path d="M14.9406 6.98816C13.6316 6.98816 12.352 7.35271 11.2636 8.0357C10.1752 8.7187 9.32687 9.68947 8.82593 10.8253C8.325 11.961 8.19393 13.2108 8.4493 14.4166C8.70468 15.6223 9.33503 16.7298 10.2606 17.5991C11.1862 18.4684 12.3655 19.0604 13.6494 19.3002C14.9333 19.5401 16.264 19.417 17.4734 18.9465C18.6827 18.4761 19.7164 17.6794 20.4436 16.6572C21.1709 15.635 21.5591 14.4333 21.5591 13.2039C21.5591 11.5554 20.8618 9.97439 19.6206 8.80871C18.3794 7.64303 16.6959 6.98816 14.9406 6.98816V6.98816ZM14.9406 17.2388C14.0909 17.2388 13.2602 17.0022 12.5537 16.5588C11.8472 16.1155 11.2965 15.4853 10.9713 14.748C10.6461 14.0107 10.5611 13.1994 10.7268 12.4167C10.8926 11.6341 11.3018 10.9151 11.9026 10.3508C12.5035 9.78652 13.269 9.40223 14.1024 9.24654C14.9358 9.09085 15.7997 9.17076 16.5847 9.47615C17.3698 9.78154 18.0408 10.2987 18.5129 10.9622C18.9849 11.6258 19.2369 12.4059 19.2369 13.2039C19.2369 14.274 18.7843 15.3003 17.9785 16.057C17.1728 16.8137 16.08 17.2388 14.9406 17.2388V17.2388Z" fill="white"/>
<path d="M21.8203 8.19528C22.6745 8.19528 23.3669 7.545 23.3669 6.74284C23.3669 5.94068 22.6745 5.29041 21.8203 5.29041C20.9662 5.29041 20.2738 5.94068 20.2738 6.74284C20.2738 7.545 20.9662 8.19528 21.8203 8.19528Z" fill="white"/>
</svg>
