<svg width="29" height="29" viewBox="0 0 29 29" fill="none" xmlns="http://www.w3.org/2000/svg">
<g clip-path="url(#clip0_405_142)">
<path d="M28.1188 5.38942C27.0644 5.85807 26.0099 6.20955 24.8383 6.32672C26.0099 5.62375 26.9472 4.45213 27.4158 3.16335C26.2442 3.86632 25.0726 4.33497 23.7838 4.56929C22.7294 3.39767 21.2063 2.6947 19.566 2.6947C16.4026 2.6947 13.8251 5.27226 13.8251 8.43563C13.8251 8.90427 13.8251 9.37292 13.9422 9.72441C9.02145 9.49008 4.80363 7.14685 1.99175 3.632C1.40594 4.56929 1.17162 5.50658 1.17162 6.56104C1.17162 8.55279 2.22607 10.3102 3.74917 11.3647C2.81188 11.3647 1.87459 11.1303 1.17162 10.6617C1.17162 10.6617 1.17162 10.6617 1.17162 10.7789C1.17162 13.5907 3.16337 15.934 5.74092 16.4026C5.27228 16.5198 4.80363 16.6369 4.21782 16.6369C3.86634 16.6369 3.51485 16.6369 3.16337 16.5198C3.86634 18.863 5.97525 20.5033 8.55281 20.5033C6.56106 22.0264 4.10066 22.9637 1.40594 22.9637C0.937294 22.9637 0.468647 22.9637 0 22.8465C2.57756 24.4868 5.62376 25.4241 8.78713 25.4241C19.4488 25.4241 25.1898 16.6369 25.1898 9.02143C25.1898 8.78711 25.1898 8.55279 25.1898 8.31846C26.3614 7.49833 27.2987 6.44388 28.1188 5.38942Z" fill="white"/>
</g>
<defs>
<clipPath id="clip0_405_142">
<rect width="28.1188" height="28.1188" fill="white"/>
</clipPath>
</defs>
</svg>
