<svg width="24" height="24" viewBox="0 0 24 24" fill="none" xmlns="http://www.w3.org/2000/svg">
<path d="M12 2C9.79085 2 7.99999 3.79086 7.99999 5.99999C7.99999 8.20913 9.79085 9.99999 12 9.99999C14.2091 9.99999 16 8.20913 16 5.99999C16 3.79086 14.2091 2 12 2ZM9.99999 5.99999C9.99999 4.89543 10.8954 4 12 4C13.1046 4 14 4.89543 14 5.99999C14 7.10456 13.1046 7.99999 12 7.99999C10.8954 7.99999 9.99999 7.10456 9.99999 5.99999ZM17 12L6.99996 12C5.34312 12 4 13.3432 4 15C4 17.2321 4.91794 19.0205 6.42429 20.2296C7.90683 21.4196 9.89384 22 12 22C14.1061 22 16.0931 21.4196 17.5757 20.2296C19.082 19.0205 20 17.2321 20 15C20 13.3431 18.6568 12 17 12ZM6.99996 14L17 14C17.5523 14 18 14.4477 18 15C18 16.6338 17.3509 17.8454 16.3238 18.6699C15.2728 19.5134 13.7598 20 12 20C10.2401 20 8.72716 19.5134 7.6762 18.6699C6.64906 17.8454 6 16.6338 6 15C6 14.4477 6.44774 14 6.99996 14Z" fill="#1C4848"/>
<circle cx="12.3478" cy="5.73932" r="3.13043" fill="#1C4848"/>
<path d="M6.08692 13.0437L7.65214 12.522L9.73909 13.5654H13.913H18.0869L19.1304 14.0872L17.5652 17.7394L15.4782 20.348H11.826L7.65214 19.8263L6.08692 17.7394L5.56519 15.6524V14.0872L6.08692 13.0437Z" fill="#1C4848"/>
</svg>
