<svg width="9" height="13" viewBox="0 0 9 13" fill="none" xmlns="http://www.w3.org/2000/svg">
<path d="M0.488608 7.61419C0.795611 7.28274 1.3197 7.28246 1.62706 7.61357L3.80567 9.96052C4.1805 10.3643 4.8195 10.3643 5.19433 9.96052L7.37294 7.61357C7.6803 7.28246 8.20439 7.28274 8.51139 7.61419V7.61419C8.78708 7.91183 8.78708 8.37157 8.51139 8.66921L5.19503 12.2496C4.82009 12.6544 4.17991 12.6544 3.80497 12.2496L0.488608 8.66921C0.212916 8.37157 0.212916 7.91183 0.488608 7.61419V7.61419Z" fill="#374151"/>
<path d="M0.488608 5.38581C0.795611 5.71726 1.3197 5.71754 1.62706 5.38643L3.80567 3.03948C4.1805 2.63569 4.8195 2.63569 5.19433 3.03948L7.37294 5.38643C7.6803 5.71754 8.20439 5.71726 8.51139 5.38581V5.38581C8.78708 5.08817 8.78708 4.62843 8.51139 4.33079L5.19503 0.75037C4.82009 0.345573 4.17991 0.345572 3.80497 0.750369L0.488608 4.33079C0.212916 4.62843 0.212916 5.08817 0.488608 5.38581V5.38581Z" fill="#374151"/>
</svg>
