<svg width="55" height="54" viewBox="0 0 55 54" fill="none" xmlns="http://www.w3.org/2000/svg">
<path d="M43.25 49.5H11.75C9.26472 49.5 7.25 47.4853 7.25 45V13.5C7.25 11.0147 9.26472 9 11.75 9H16.25V4.5H20.75V9H34.25V4.5H38.75V9H43.25C45.7353 9 47.75 11.0147 47.75 13.5V45C47.75 47.4853 45.7353 49.5 43.25 49.5ZM11.75 22.5V45H43.25V22.5H11.75ZM11.75 13.5V18H43.25V13.5H11.75ZM22.3385 42.0908L19.1593 38.9093L24.3185 33.75L19.1593 28.5907L22.3408 25.4093L27.5 30.5685L32.6593 25.4115L35.8407 28.593L30.6815 33.75L35.8407 38.9093L32.6615 42.0885L27.5 36.9315L22.3408 42.0908H22.3385Z" fill="#94A3B8"/>
</svg>
