<svg width="24" height="24" viewBox="0 0 24 24" fill="none" xmlns="http://www.w3.org/2000/svg">
<path d="M15 6H19.5C19.9142 6 20.25 6.33579 20.25 6.75C20.25 7.16421 19.9142 7.5 19.5 7.5H18.6713L17.5419 17.6641C17.3309 19.5632 15.7257 21 13.8149 21H10.1851C8.27431 21 6.66907 19.5632 6.45805 17.6641L5.32871 7.5H4.5C4.08579 7.5 3.75 7.16421 3.75 6.75C3.75 6.33579 4.08579 6 4.5 6H9C9 4.34315 10.3431 3 12 3C13.6569 3 15 4.34315 15 6ZM12 4.5C11.1716 4.5 10.5 5.17157 10.5 6H13.5C13.5 5.17157 12.8284 4.5 12 4.5ZM9.75 10.5L9.75 16.5C9.75 16.9142 10.0858 17.25 10.5 17.25C10.9142 17.25 11.25 16.9142 11.25 16.5L11.25 10.5C11.25 10.0858 10.9142 9.75 10.5 9.75C10.0858 9.75 9.75 10.0858 9.75 10.5ZM13.5 9.75C13.0858 9.75 12.75 10.0858 12.75 10.5V16.5C12.75 16.9142 13.0858 17.25 13.5 17.25C13.9142 17.25 14.25 16.9142 14.25 16.5V10.5C14.25 10.0858 13.9142 9.75 13.5 9.75Z" fill="#94A3B8"/>
</svg>
