<svg width="16" height="16" viewBox="0 0 16 16" fill="none" xmlns="http://www.w3.org/2000/svg">
<path d="M1.59998 4.8002C1.59998 3.91654 2.31632 3.2002 3.19998 3.2002H7.99998C8.88363 3.2002 9.59998 3.91654 9.59998 4.8002V11.2002C9.59998 12.0839 8.88363 12.8002 7.99998 12.8002H3.19998C2.31632 12.8002 1.59998 12.0839 1.59998 11.2002V4.8002Z" fill="#FA7E6D"/>
<path d="M11.6422 5.68465C11.3712 5.82017 11.2 6.09718 11.2 6.4002V9.6002C11.2 9.90321 11.3712 10.1802 11.6422 10.3157L13.2422 11.1157C13.4902 11.2397 13.7847 11.2265 14.0206 11.0807C14.2564 10.935 14.4 10.6775 14.4 10.4002V5.6002C14.4 5.32293 14.2564 5.06544 14.0206 4.91968C13.7847 4.77391 13.4902 4.76066 13.2422 4.88465L11.6422 5.68465Z" fill="#FA7E6D"/>
</svg>
