<svg width="17" height="16" viewBox="0 0 17 16" fill="none" xmlns="http://www.w3.org/2000/svg">
<path d="M1.93335 4.8002C1.93335 3.91654 2.64969 3.2002 3.53335 3.2002H8.33335C9.217 3.2002 9.93335 3.91654 9.93335 4.8002V11.2002C9.93335 12.0839 9.217 12.8002 8.33335 12.8002H3.53335C2.64969 12.8002 1.93335 12.0839 1.93335 11.2002V4.8002Z" fill="#1C4848"/>
<path d="M11.9756 5.68465C11.7046 5.82017 11.5333 6.09718 11.5333 6.4002V9.6002C11.5333 9.90321 11.7046 10.1802 11.9756 10.3157L13.5756 11.1157C13.8236 11.2397 14.1181 11.2265 14.3539 11.0807C14.5898 10.935 14.7333 10.6775 14.7333 10.4002V5.6002C14.7333 5.32293 14.5898 5.06544 14.3539 4.91968C14.1181 4.77391 13.8236 4.76066 13.5756 4.88465L11.9756 5.68465Z" fill="#1C4848"/>
</svg>
