<svg width="17" height="16" viewBox="0 0 17 16" fill="none" xmlns="http://www.w3.org/2000/svg">
<path d="M2.09998 4.8002C2.09998 3.91654 2.81632 3.2002 3.69998 3.2002H8.49998C9.38363 3.2002 10.1 3.91654 10.1 4.8002V11.2002C10.1 12.0839 9.38363 12.8002 8.49998 12.8002H3.69998C2.81632 12.8002 2.09998 12.0839 2.09998 11.2002V4.8002Z" fill="#F0FBF8"/>
<path d="M12.1422 5.68465C11.8712 5.82017 11.7 6.09718 11.7 6.4002V9.6002C11.7 9.90321 11.8712 10.1802 12.1422 10.3157L13.7422 11.1157C13.9902 11.2397 14.2847 11.2265 14.5206 11.0807C14.7564 10.935 14.9 10.6775 14.9 10.4002V5.6002C14.9 5.32293 14.7564 5.06544 14.5206 4.91968C14.2847 4.77391 13.9902 4.76066 13.7422 4.88465L12.1422 5.68465Z" fill="#F0FBF8"/>
</svg>
