<svg width="1439" height="295" viewBox="0 0 1439 295" fill="none" xmlns="http://www.w3.org/2000/svg">
<g clip-path="url(#clip0_364_3760)">
<g opacity="0.2">
<path d="M-173.413 253.812C-118.77 220.161 114.491 -44.7274 988.973 103.915C1863.46 252.557 2103.77 139.428 2208.34 -109.402" stroke="#CBD5E1" stroke-width="1.11256" stroke-miterlimit="10"/>
<path d="M-172.95 244.563C-120.906 212.496 118.524 -39.189 985.74 112.943C1852.96 265.075 2099.61 119.712 2199.29 -117.315" stroke="#CBD5E1" stroke-width="1.11256" stroke-miterlimit="10"/>
<path d="M-172.44 235.323C-123.004 204.86 122.534 -33.5397 982.6 122.366C1842.67 278.271 2095.66 100.737 2190.35 -124.444" stroke="#CBD5E1" stroke-width="1.11256" stroke-miterlimit="10"/>
<path d="M-171.932 226.073C-125.092 197.212 126.533 -27.8882 979.46 131.779C1832.39 291.447 2091.71 81.752 2181.41 -131.571" stroke="#CBD5E1" stroke-width="1.11256" stroke-miterlimit="10"/>
<path d="M-171.424 216.819C-127.192 189.563 130.541 -22.2524 976.318 141.178C1822.09 304.608 2087.76 62.7527 2172.47 -138.723" stroke="#CBD5E1" stroke-width="1.11256" stroke-miterlimit="10"/>
<path d="M-170.926 207.58C-129.29 181.926 134.541 -16.591 973.156 150.604C1811.77 317.798 2083.78 43.7804 2163.51 -145.838" stroke="#CBD5E1" stroke-width="1.11256" stroke-miterlimit="10"/>
<path d="M-170.418 198.326C-131.389 174.276 138.551 -10.9448 970.016 160.013C1801.48 330.971 2079.83 24.7915 2154.57 -152.98" stroke="#CBD5E1" stroke-width="1.11256" stroke-miterlimit="10"/>
<path d="M-169.91 189.076C-133.477 166.628 142.56 -5.30583 966.874 169.415C1791.19 344.136 2075.88 5.79548 2145.63 -160.119" stroke="#CBD5E1" stroke-width="1.11256" stroke-miterlimit="10"/>
<path d="M-169.402 179.822C-135.576 158.978 146.558 0.341676 963.734 178.824C1780.91 357.307 2071.91 -13.1921 2136.71 -167.262" stroke="#CBD5E1" stroke-width="1.11256" stroke-miterlimit="10"/>
<path d="M-168.893 170.582C-137.663 151.341 150.568 5.99146 960.583 188.249C1770.6 370.506 2067.95 -32.1654 2127.76 -174.378" stroke="#CBD5E1" stroke-width="1.11256" stroke-miterlimit="10"/>
<path d="M-168.385 161.33C-139.762 143.693 154.578 11.6395 957.441 197.649C1760.3 383.659 2063.99 -51.163 2118.82 -181.529" stroke="#CBD5E1" stroke-width="1.11256" stroke-miterlimit="10"/>
<path d="M-167.888 152.079C-141.872 136.046 158.564 17.2794 954.29 207.062C1750.02 396.844 2060.03 -70.1488 2109.87 -188.657" stroke="#CBD5E1" stroke-width="1.11256" stroke-miterlimit="10"/>
<path d="M-167.379 142.837C-143.959 128.407 162.576 22.9378 951.151 216.483C1739.73 410.028 2056.08 -89.1255 2100.93 -195.787" stroke="#CBD5E1" stroke-width="1.11256" stroke-miterlimit="10"/>
<path d="M-166.871 133.583C-146.058 120.757 166.584 28.5734 947.997 225.883C1729.41 423.193 2052.12 -108.113 2091.98 -202.928" stroke="#CBD5E1" stroke-width="1.11256" stroke-miterlimit="10"/>
<path d="M-166.363 124.332C-148.146 113.109 170.594 34.223 944.857 235.296C1719.12 436.368 2048.15 -127.097 2083.04 -210.066" stroke="#CBD5E1" stroke-width="1.11256" stroke-miterlimit="10"/>
<path d="M-165.854 115.089C-150.244 105.469 174.593 39.8706 941.718 244.716C1708.84 449.561 2044.2 -146.075 2074.11 -217.187" stroke="#CBD5E1" stroke-width="1.11256" stroke-miterlimit="10"/>
<path d="M-165.346 105.839C-152.332 97.8215 178.603 45.5203 938.577 254.128C1698.55 462.736 2040.24 -165.07 2065.15 -224.324" stroke="#CBD5E1" stroke-width="1.11256" stroke-miterlimit="10"/>
<path d="M-164.85 96.589C-154.443 90.1759 182.601 51.1709 935.413 263.533C1688.22 475.894 2036.28 -184.056 2056.22 -231.463" stroke="#CBD5E1" stroke-width="1.11256" stroke-miterlimit="10"/>
<path d="M-164.341 87.3365C-156.53 82.526 186.599 56.8093 932.273 272.943C1677.95 489.078 2032.32 -203.042 2047.27 -238.591" stroke="#CBD5E1" stroke-width="1.11256" stroke-miterlimit="10"/>
<path d="M-163.833 78.0932C-158.629 74.8866 190.609 62.4661 929.133 282.363C1667.66 502.26 2028.37 -222.03 2038.33 -245.733" stroke="#CBD5E1" stroke-width="1.11256" stroke-miterlimit="10"/>
<path d="M-163.324 68.8446C-160.716 67.2407 194.619 68.1072 925.992 291.767C1657.37 515.428 2024.4 -241.013 2029.39 -252.859" stroke="#CBD5E1" stroke-width="1.11256" stroke-miterlimit="10"/>
<path d="M-162.817 59.5906C-162.817 59.5906 198.628 73.7533 922.839 301.178C1647.05 528.602 2020.44 -260 2020.44 -260" stroke="#CBD5E1" stroke-width="1.11256" stroke-miterlimit="10"/>
<path d="M-157.166 76.2547C-155.986 74.716 210.376 60.9415 922.223 286.866C1634.07 512.791 2005.69 -218.986 2023.57 -225.947" stroke="#CBD5E1" stroke-width="1.11256" stroke-miterlimit="10"/>
<path d="M-151.515 92.9319C-149.156 89.8545 222.137 48.1522 921.609 272.579C1621.08 497.005 1990.96 -177.971 2026.7 -191.891" stroke="#CBD5E1" stroke-width="1.11256" stroke-miterlimit="10"/>
<path d="M-145.863 109.599C-142.325 104.983 233.899 35.3527 920.982 258.272C1608.07 481.19 1976.21 -136.975 2029.84 -157.834" stroke="#CBD5E1" stroke-width="1.11256" stroke-miterlimit="10"/>
<path d="M-140.214 126.261C-135.508 120.107 245.657 22.5372 920.366 243.968C1595.08 465.4 1961.45 -95.9616 2032.96 -123.782" stroke="#CBD5E1" stroke-width="1.11256" stroke-miterlimit="10"/>
<path d="M-134.563 142.929C-128.678 135.236 257.418 9.73865 919.75 229.661C1582.08 449.583 1946.71 -54.9543 2036.09 -89.7352" stroke="#CBD5E1" stroke-width="1.11256" stroke-miterlimit="10"/>
<path d="M-128.901 159.593C-121.836 150.362 269.178 -3.07307 919.136 215.362C1569.09 433.796 1931.97 -13.9401 2039.22 -55.6804" stroke="#CBD5E1" stroke-width="1.11256" stroke-miterlimit="10"/>
<path d="M-123.252 176.255C-115.008 165.486 280.937 -15.877 918.519 201.059C1556.1 417.995 1917.22 27.0619 2042.35 -21.6284" stroke="#CBD5E1" stroke-width="1.11256" stroke-miterlimit="10"/>
<path d="M-117.6 192.921C-108.177 180.613 292.697 -28.688 917.904 186.75C1543.11 402.188 1902.48 68.0675 2045.47 12.4178" stroke="#CBD5E1" stroke-width="1.11256" stroke-miterlimit="10"/>
<path d="M-111.949 209.597C-101.347 195.75 304.458 -41.4787 917.288 172.45C1530.12 386.379 1887.73 109.083 2048.61 46.4724" stroke="#CBD5E1" stroke-width="1.11256" stroke-miterlimit="10"/>
<path d="M-106.299 226.263C-94.5165 210.877 316.219 -54.2799 916.662 158.152C1517.11 370.584 1872.99 150.098 2051.73 80.5283" stroke="#CBD5E1" stroke-width="1.11256" stroke-miterlimit="10"/>
<path d="M-100.648 242.929C-87.6865 226.005 327.978 -67.0903 916.046 143.843C1504.11 354.777 1858.24 191.094 2054.86 114.574" stroke="#CBD5E1" stroke-width="1.11256" stroke-miterlimit="10"/>
<path d="M-94.9859 259.592C-80.8566 241.13 339.739 -79.8927 915.442 129.541C1491.15 338.975 1843.5 232.107 2058 148.637" stroke="#CBD5E1" stroke-width="1.11256" stroke-miterlimit="10"/>
<path d="M-89.3358 276.258C-74.0271 256.258 351.498 -92.7036 914.814 115.233C1478.13 323.17 1828.75 273.114 2061.12 182.683" stroke="#CBD5E1" stroke-width="1.11256" stroke-miterlimit="10"/>
<path d="M-83.6856 292.927C-67.1976 271.388 363.258 -105.502 914.199 100.937C1465.14 307.375 1814.01 314.131 2064.26 216.741" stroke="#CBD5E1" stroke-width="1.11256" stroke-miterlimit="10"/>
<path d="M-78.0351 309.588C-60.3677 286.51 375.019 -118.307 913.583 86.6229C1452.15 291.553 1799.26 355.121 2067.39 250.781" stroke="#CBD5E1" stroke-width="1.11256" stroke-miterlimit="10"/>
<path d="M-72.384 326.255C-53.5372 301.638 386.779 -131.118 912.957 72.3257C1439.14 275.769 1784.51 396.139 2070.51 284.838" stroke="#CBD5E1" stroke-width="1.11256" stroke-miterlimit="10"/>
<path d="M-66.7329 342.932C-46.7068 316.776 398.528 -143.906 912.341 58.027C1426.15 259.96 1769.76 437.155 2073.64 318.894" stroke="#CBD5E1" stroke-width="1.11256" stroke-miterlimit="10"/>
<path d="M-61.0705 359.594C-39.8651 331.9 410.299 -156.721 911.738 43.7245C1413.18 244.17 1755.04 478.166 2076.77 352.947" stroke="#CBD5E1" stroke-width="1.11256" stroke-miterlimit="10"/>
<path d="M-55.4206 376.26C-33.0472 347.029 422.059 -169.521 911.11 29.4166C1400.16 228.354 1740.28 519.163 2079.89 386.993" stroke="#CBD5E1" stroke-width="1.11256" stroke-miterlimit="10"/>
<path d="M-49.7707 392.926C-26.218 362.156 433.82 -182.321 910.494 15.1179C1387.17 212.557 1725.53 560.179 2083.02 421.049" stroke="#CBD5E1" stroke-width="1.11256" stroke-miterlimit="10"/>
<path d="M-44.1207 409.59C-19.3886 377.281 445.578 -195.135 909.877 0.806319C1374.18 196.747 1710.78 601.182 2086.16 455.102" stroke="#CBD5E1" stroke-width="1.11256" stroke-miterlimit="10"/>
</g>
</g>
<defs>
<clipPath id="clip0_364_3760">
<rect width="1439" height="295" fill="white"/>
</clipPath>
</defs>
</svg>
