<svg width="151" height="143" viewBox="0 0 151 143" fill="none" xmlns="http://www.w3.org/2000/svg">
<g opacity="0.6">
<path d="M0.144778 0.322L0.144778 -1.036L2.44078 -1.036L2.44078 -3.36L3.84078 -3.36L3.84078 -1.036L6.13678 -1.036L6.13678 0.322L3.84078 0.322L3.84078 2.73L2.44078 2.73L2.44078 0.322L0.144778 0.322Z" fill="url(#paint0_linear_131_4388)"/>
<path d="M16.1887 0.322L16.1887 -1.036L18.4847 -1.036L18.4847 -3.36L19.8847 -3.36L19.8847 -1.036L22.1807 -1.036L22.1807 0.322L19.8847 0.322L19.8847 2.73L18.4847 2.73L18.4847 0.322L16.1887 0.322Z" fill="url(#paint1_linear_131_4388)"/>
<path d="M32.2327 0.322L32.2327 -1.036L34.5287 -1.036L34.5287 -3.36L35.9287 -3.36L35.9287 -1.036L38.2247 -1.036L38.2247 0.322L35.9287 0.322L35.9287 2.73L34.5287 2.73L34.5287 0.322L32.2327 0.322Z" fill="url(#paint2_linear_131_4388)"/>
<path d="M48.2766 0.322L48.2766 -1.036L50.5726 -1.036L50.5726 -3.36L51.9726 -3.36L51.9726 -1.036L54.2686 -1.036L54.2686 0.322L51.9726 0.322L51.9726 2.73L50.5726 2.73L50.5726 0.322L48.2766 0.322Z" fill="url(#paint3_linear_131_4388)"/>
<path d="M64.3206 0.322L64.3206 -1.036L66.6166 -1.036L66.6166 -3.36L68.0166 -3.36L68.0166 -1.036L70.3126 -1.036L70.3126 0.322L68.0166 0.322L68.0166 2.73L66.6166 2.73L66.6166 0.322L64.3206 0.322Z" fill="url(#paint4_linear_131_4388)"/>
<path d="M80.3645 0.322L80.3645 -1.036L82.6605 -1.036L82.6605 -3.36L84.0605 -3.36L84.0605 -1.036L86.3565 -1.036L86.3565 0.322L84.0605 0.322L84.0605 2.73L82.6605 2.73L82.6605 0.322L80.3645 0.322Z" fill="url(#paint5_linear_131_4388)"/>
<path d="M96.4083 0.322L96.4083 -1.036L98.7043 -1.036L98.7043 -3.36L100.104 -3.36L100.104 -1.036L102.4 -1.036L102.4 0.322L100.104 0.322L100.104 2.73L98.7043 2.73L98.7043 0.322L96.4083 0.322Z" fill="url(#paint6_linear_131_4388)"/>
<path d="M112.452 0.322L112.452 -1.036L114.748 -1.036L114.748 -3.36L116.148 -3.36L116.148 -1.036L118.444 -1.036L118.444 0.322L116.148 0.322L116.148 2.73L114.748 2.73L114.748 0.322L112.452 0.322Z" fill="url(#paint7_linear_131_4388)"/>
<path d="M128.496 0.322L128.496 -1.036L130.792 -1.036L130.792 -3.36L132.192 -3.36L132.192 -1.036L134.488 -1.036L134.488 0.322L132.192 0.322L132.192 2.73L130.792 2.73L130.792 0.322L128.496 0.322Z" fill="url(#paint8_linear_131_4388)"/>
<path d="M144.54 0.322L144.54 -1.036L146.836 -1.036L146.836 -3.36L148.236 -3.36L148.236 -1.036L150.532 -1.036L150.532 0.322L148.236 0.322L148.236 2.73L146.836 2.73L146.836 0.322L144.54 0.322Z" fill="url(#paint9_linear_131_4388)"/>
<path d="M0.144778 17.822L0.144778 16.464L2.44078 16.464L2.44078 14.14L3.84078 14.14L3.84078 16.464L6.13678 16.464L6.13678 17.822L3.84078 17.822L3.84078 20.23L2.44078 20.23L2.44078 17.822L0.144778 17.822Z" fill="url(#paint10_linear_131_4388)"/>
<path d="M16.1887 17.822L16.1887 16.464L18.4847 16.464L18.4847 14.14L19.8847 14.14L19.8847 16.464L22.1807 16.464L22.1807 17.822L19.8847 17.822L19.8847 20.23L18.4847 20.23L18.4847 17.822L16.1887 17.822Z" fill="url(#paint11_linear_131_4388)"/>
<path d="M32.2327 17.822L32.2327 16.464L34.5287 16.464L34.5287 14.14L35.9287 14.14L35.9287 16.464L38.2247 16.464L38.2247 17.822L35.9287 17.822L35.9287 20.23L34.5287 20.23L34.5287 17.822L32.2327 17.822Z" fill="url(#paint12_linear_131_4388)"/>
<path d="M48.2766 17.822L48.2766 16.464L50.5726 16.464L50.5726 14.14L51.9726 14.14L51.9726 16.464L54.2686 16.464L54.2686 17.822L51.9726 17.822L51.9726 20.23L50.5726 20.23L50.5726 17.822L48.2766 17.822Z" fill="url(#paint13_linear_131_4388)"/>
<path d="M64.3206 17.822L64.3206 16.464L66.6166 16.464L66.6166 14.14L68.0166 14.14L68.0166 16.464L70.3126 16.464L70.3126 17.822L68.0166 17.822L68.0166 20.23L66.6166 20.23L66.6166 17.822L64.3206 17.822Z" fill="url(#paint14_linear_131_4388)"/>
<path d="M80.3645 17.822L80.3645 16.464L82.6605 16.464L82.6605 14.14L84.0605 14.14L84.0605 16.464L86.3565 16.464L86.3565 17.822L84.0605 17.822L84.0605 20.23L82.6605 20.23L82.6605 17.822L80.3645 17.822Z" fill="url(#paint15_linear_131_4388)"/>
<path d="M96.4083 17.822L96.4083 16.464L98.7043 16.464L98.7043 14.14L100.104 14.14L100.104 16.464L102.4 16.464L102.4 17.822L100.104 17.822L100.104 20.23L98.7043 20.23L98.7043 17.822L96.4083 17.822Z" fill="url(#paint16_linear_131_4388)"/>
<path d="M112.452 17.822L112.452 16.464L114.748 16.464L114.748 14.14L116.148 14.14L116.148 16.464L118.444 16.464L118.444 17.822L116.148 17.822L116.148 20.23L114.748 20.23L114.748 17.822L112.452 17.822Z" fill="url(#paint17_linear_131_4388)"/>
<path d="M128.496 17.822L128.496 16.464L130.792 16.464L130.792 14.14L132.192 14.14L132.192 16.464L134.488 16.464L134.488 17.822L132.192 17.822L132.192 20.23L130.792 20.23L130.792 17.822L128.496 17.822Z" fill="url(#paint18_linear_131_4388)"/>
<path d="M144.54 17.822L144.54 16.464L146.836 16.464L146.836 14.14L148.236 14.14L148.236 16.464L150.532 16.464L150.532 17.822L148.236 17.822L148.236 20.23L146.836 20.23L146.836 17.822L144.54 17.822Z" fill="url(#paint19_linear_131_4388)"/>
<path d="M0.144778 35.322L0.144778 33.964L2.44078 33.964L2.44078 31.64L3.84078 31.64L3.84078 33.964L6.13678 33.964L6.13678 35.322L3.84078 35.322L3.84078 37.73L2.44078 37.73L2.44078 35.322L0.144778 35.322Z" fill="url(#paint20_linear_131_4388)"/>
<path d="M16.1887 35.322L16.1887 33.964L18.4847 33.964L18.4847 31.64L19.8847 31.64L19.8847 33.964L22.1807 33.964L22.1807 35.322L19.8847 35.322L19.8847 37.73L18.4847 37.73L18.4847 35.322L16.1887 35.322Z" fill="url(#paint21_linear_131_4388)"/>
<path d="M32.2327 35.322L32.2327 33.964L34.5287 33.964L34.5287 31.64L35.9287 31.64L35.9287 33.964L38.2247 33.964L38.2247 35.322L35.9287 35.322L35.9287 37.73L34.5287 37.73L34.5287 35.322L32.2327 35.322Z" fill="url(#paint22_linear_131_4388)"/>
<path d="M48.2766 35.322L48.2766 33.964L50.5726 33.964L50.5726 31.64L51.9726 31.64L51.9726 33.964L54.2686 33.964L54.2686 35.322L51.9726 35.322L51.9726 37.73L50.5726 37.73L50.5726 35.322L48.2766 35.322Z" fill="url(#paint23_linear_131_4388)"/>
<path d="M64.3206 35.322L64.3206 33.964L66.6166 33.964L66.6166 31.64L68.0166 31.64L68.0166 33.964L70.3126 33.964L70.3126 35.322L68.0166 35.322L68.0166 37.73L66.6166 37.73L66.6166 35.322L64.3206 35.322Z" fill="url(#paint24_linear_131_4388)"/>
<path d="M80.3645 35.322L80.3645 33.964L82.6605 33.964L82.6605 31.64L84.0605 31.64L84.0605 33.964L86.3565 33.964L86.3565 35.322L84.0605 35.322L84.0605 37.73L82.6605 37.73L82.6605 35.322L80.3645 35.322Z" fill="url(#paint25_linear_131_4388)"/>
<path d="M96.4083 35.322L96.4083 33.964L98.7043 33.964L98.7043 31.64L100.104 31.64L100.104 33.964L102.4 33.964L102.4 35.322L100.104 35.322L100.104 37.73L98.7043 37.73L98.7043 35.322L96.4083 35.322Z" fill="url(#paint26_linear_131_4388)"/>
<path d="M112.452 35.322L112.452 33.964L114.748 33.964L114.748 31.64L116.148 31.64L116.148 33.964L118.444 33.964L118.444 35.322L116.148 35.322L116.148 37.73L114.748 37.73L114.748 35.322L112.452 35.322Z" fill="url(#paint27_linear_131_4388)"/>
<path d="M128.496 35.322L128.496 33.964L130.792 33.964L130.792 31.64L132.192 31.64L132.192 33.964L134.488 33.964L134.488 35.322L132.192 35.322L132.192 37.73L130.792 37.73L130.792 35.322L128.496 35.322Z" fill="url(#paint28_linear_131_4388)"/>
<path d="M144.54 35.322L144.54 33.964L146.836 33.964L146.836 31.64L148.236 31.64L148.236 33.964L150.532 33.964L150.532 35.322L148.236 35.322L148.236 37.73L146.836 37.73L146.836 35.322L144.54 35.322Z" fill="url(#paint29_linear_131_4388)"/>
<path d="M0.144778 52.822L0.144778 51.464L2.44078 51.464L2.44078 49.14L3.84078 49.14L3.84078 51.464L6.13678 51.464L6.13678 52.822L3.84078 52.822L3.84078 55.23L2.44078 55.23L2.44078 52.822L0.144778 52.822Z" fill="url(#paint30_linear_131_4388)"/>
<path d="M16.1887 52.822L16.1887 51.464L18.4847 51.464L18.4847 49.14L19.8847 49.14L19.8847 51.464L22.1807 51.464L22.1807 52.822L19.8847 52.822L19.8847 55.23L18.4847 55.23L18.4847 52.822L16.1887 52.822Z" fill="url(#paint31_linear_131_4388)"/>
<path d="M32.2327 52.822L32.2327 51.464L34.5287 51.464L34.5287 49.14L35.9287 49.14L35.9287 51.464L38.2247 51.464L38.2247 52.822L35.9287 52.822L35.9287 55.23L34.5287 55.23L34.5287 52.822L32.2327 52.822Z" fill="url(#paint32_linear_131_4388)"/>
<path d="M48.2766 52.822L48.2766 51.464L50.5726 51.464L50.5726 49.14L51.9726 49.14L51.9726 51.464L54.2686 51.464L54.2686 52.822L51.9726 52.822L51.9726 55.23L50.5726 55.23L50.5726 52.822L48.2766 52.822Z" fill="url(#paint33_linear_131_4388)"/>
<path d="M64.3206 52.822L64.3206 51.464L66.6166 51.464L66.6166 49.14L68.0166 49.14L68.0166 51.464L70.3126 51.464L70.3126 52.822L68.0166 52.822L68.0166 55.23L66.6166 55.23L66.6166 52.822L64.3206 52.822Z" fill="url(#paint34_linear_131_4388)"/>
<path d="M80.3645 52.822L80.3645 51.464L82.6605 51.464L82.6605 49.14L84.0605 49.14L84.0605 51.464L86.3565 51.464L86.3565 52.822L84.0605 52.822L84.0605 55.23L82.6605 55.23L82.6605 52.822L80.3645 52.822Z" fill="url(#paint35_linear_131_4388)"/>
<path d="M96.4083 52.822L96.4083 51.464L98.7043 51.464L98.7043 49.14L100.104 49.14L100.104 51.464L102.4 51.464L102.4 52.822L100.104 52.822L100.104 55.23L98.7043 55.23L98.7043 52.822L96.4083 52.822Z" fill="url(#paint36_linear_131_4388)"/>
<path d="M112.452 52.822L112.452 51.464L114.748 51.464L114.748 49.14L116.148 49.14L116.148 51.464L118.444 51.464L118.444 52.822L116.148 52.822L116.148 55.23L114.748 55.23L114.748 52.822L112.452 52.822Z" fill="url(#paint37_linear_131_4388)"/>
<path d="M128.496 52.822L128.496 51.464L130.792 51.464L130.792 49.14L132.192 49.14L132.192 51.464L134.488 51.464L134.488 52.822L132.192 52.822L132.192 55.23L130.792 55.23L130.792 52.822L128.496 52.822Z" fill="url(#paint38_linear_131_4388)"/>
<path d="M144.54 52.822L144.54 51.464L146.836 51.464L146.836 49.14L148.236 49.14L148.236 51.464L150.532 51.464L150.532 52.822L148.236 52.822L148.236 55.23L146.836 55.23L146.836 52.822L144.54 52.822Z" fill="url(#paint39_linear_131_4388)"/>
<path d="M0.144778 70.322L0.144778 68.964L2.44078 68.964L2.44078 66.64L3.84078 66.64L3.84078 68.964L6.13678 68.964L6.13678 70.322L3.84078 70.322L3.84078 72.73L2.44078 72.73L2.44078 70.322L0.144778 70.322Z" fill="url(#paint40_linear_131_4388)"/>
<path d="M16.1887 70.322L16.1887 68.964L18.4847 68.964L18.4847 66.64L19.8847 66.64L19.8847 68.964L22.1807 68.964L22.1807 70.322L19.8847 70.322L19.8847 72.73L18.4847 72.73L18.4847 70.322L16.1887 70.322Z" fill="url(#paint41_linear_131_4388)"/>
<path d="M32.2327 70.322L32.2327 68.964L34.5287 68.964L34.5287 66.64L35.9287 66.64L35.9287 68.964L38.2247 68.964L38.2247 70.322L35.9287 70.322L35.9287 72.73L34.5287 72.73L34.5287 70.322L32.2327 70.322Z" fill="url(#paint42_linear_131_4388)"/>
<path d="M48.2766 70.322L48.2766 68.964L50.5726 68.964L50.5726 66.64L51.9726 66.64L51.9726 68.964L54.2686 68.964L54.2686 70.322L51.9726 70.322L51.9726 72.73L50.5726 72.73L50.5726 70.322L48.2766 70.322Z" fill="url(#paint43_linear_131_4388)"/>
<path d="M64.3206 70.322L64.3206 68.964L66.6166 68.964L66.6166 66.64L68.0166 66.64L68.0166 68.964L70.3126 68.964L70.3126 70.322L68.0166 70.322L68.0166 72.73L66.6166 72.73L66.6166 70.322L64.3206 70.322Z" fill="url(#paint44_linear_131_4388)"/>
<path d="M80.3645 70.322L80.3645 68.964L82.6605 68.964L82.6605 66.64L84.0605 66.64L84.0605 68.964L86.3565 68.964L86.3565 70.322L84.0605 70.322L84.0605 72.73L82.6605 72.73L82.6605 70.322L80.3645 70.322Z" fill="url(#paint45_linear_131_4388)"/>
<path d="M96.4083 70.322L96.4083 68.964L98.7043 68.964L98.7043 66.64L100.104 66.64L100.104 68.964L102.4 68.964L102.4 70.322L100.104 70.322L100.104 72.73L98.7043 72.73L98.7043 70.322L96.4083 70.322Z" fill="url(#paint46_linear_131_4388)"/>
<path d="M112.452 70.322L112.452 68.964L114.748 68.964L114.748 66.64L116.148 66.64L116.148 68.964L118.444 68.964L118.444 70.322L116.148 70.322L116.148 72.73L114.748 72.73L114.748 70.322L112.452 70.322Z" fill="url(#paint47_linear_131_4388)"/>
<path d="M128.496 70.322L128.496 68.964L130.792 68.964L130.792 66.64L132.192 66.64L132.192 68.964L134.488 68.964L134.488 70.322L132.192 70.322L132.192 72.73L130.792 72.73L130.792 70.322L128.496 70.322Z" fill="url(#paint48_linear_131_4388)"/>
<path d="M144.54 70.322L144.54 68.964L146.836 68.964L146.836 66.64L148.236 66.64L148.236 68.964L150.532 68.964L150.532 70.322L148.236 70.322L148.236 72.73L146.836 72.73L146.836 70.322L144.54 70.322Z" fill="url(#paint49_linear_131_4388)"/>
<path d="M0.144778 87.822L0.144778 86.464L2.44078 86.464L2.44078 84.14L3.84078 84.14L3.84078 86.464L6.13678 86.464L6.13678 87.822L3.84078 87.822L3.84078 90.23L2.44078 90.23L2.44078 87.822L0.144778 87.822Z" fill="url(#paint50_linear_131_4388)"/>
<path d="M16.1887 87.822L16.1887 86.464L18.4847 86.464L18.4847 84.14L19.8847 84.14L19.8847 86.464L22.1807 86.464L22.1807 87.822L19.8847 87.822L19.8847 90.23L18.4847 90.23L18.4847 87.822L16.1887 87.822Z" fill="url(#paint51_linear_131_4388)"/>
<path d="M32.2327 87.822L32.2327 86.464L34.5287 86.464L34.5287 84.14L35.9287 84.14L35.9287 86.464L38.2247 86.464L38.2247 87.822L35.9287 87.822L35.9287 90.23L34.5287 90.23L34.5287 87.822L32.2327 87.822Z" fill="url(#paint52_linear_131_4388)"/>
<path d="M48.2766 87.822L48.2766 86.464L50.5726 86.464L50.5726 84.14L51.9726 84.14L51.9726 86.464L54.2686 86.464L54.2686 87.822L51.9726 87.822L51.9726 90.23L50.5726 90.23L50.5726 87.822L48.2766 87.822Z" fill="url(#paint53_linear_131_4388)"/>
<path d="M64.3206 87.822L64.3206 86.464L66.6166 86.464L66.6166 84.14L68.0166 84.14L68.0166 86.464L70.3126 86.464L70.3126 87.822L68.0166 87.822L68.0166 90.23L66.6166 90.23L66.6166 87.822L64.3206 87.822Z" fill="url(#paint54_linear_131_4388)"/>
<path d="M80.3645 87.822L80.3645 86.464L82.6605 86.464L82.6605 84.14L84.0605 84.14L84.0605 86.464L86.3565 86.464L86.3565 87.822L84.0605 87.822L84.0605 90.23L82.6605 90.23L82.6605 87.822L80.3645 87.822Z" fill="url(#paint55_linear_131_4388)"/>
<path d="M96.4083 87.822L96.4083 86.464L98.7043 86.464L98.7043 84.14L100.104 84.14L100.104 86.464L102.4 86.464L102.4 87.822L100.104 87.822L100.104 90.23L98.7043 90.23L98.7043 87.822L96.4083 87.822Z" fill="url(#paint56_linear_131_4388)"/>
<path d="M112.452 87.822L112.452 86.464L114.748 86.464L114.748 84.14L116.148 84.14L116.148 86.464L118.444 86.464L118.444 87.822L116.148 87.822L116.148 90.23L114.748 90.23L114.748 87.822L112.452 87.822Z" fill="url(#paint57_linear_131_4388)"/>
<path d="M128.496 87.822L128.496 86.464L130.792 86.464L130.792 84.14L132.192 84.14L132.192 86.464L134.488 86.464L134.488 87.822L132.192 87.822L132.192 90.23L130.792 90.23L130.792 87.822L128.496 87.822Z" fill="url(#paint58_linear_131_4388)"/>
<path d="M144.54 87.822L144.54 86.464L146.836 86.464L146.836 84.14L148.236 84.14L148.236 86.464L150.532 86.464L150.532 87.822L148.236 87.822L148.236 90.23L146.836 90.23L146.836 87.822L144.54 87.822Z" fill="url(#paint59_linear_131_4388)"/>
<path d="M0.144778 105.322L0.144778 103.964L2.44078 103.964L2.44078 101.64L3.84078 101.64L3.84078 103.964L6.13678 103.964L6.13678 105.322L3.84078 105.322L3.84078 107.73L2.44078 107.73L2.44078 105.322L0.144778 105.322Z" fill="url(#paint60_linear_131_4388)"/>
<path d="M16.1887 105.322L16.1887 103.964L18.4847 103.964L18.4847 101.64L19.8847 101.64L19.8847 103.964L22.1807 103.964L22.1807 105.322L19.8847 105.322L19.8847 107.73L18.4847 107.73L18.4847 105.322L16.1887 105.322Z" fill="url(#paint61_linear_131_4388)"/>
<path d="M32.2327 105.322L32.2327 103.964L34.5287 103.964L34.5287 101.64L35.9287 101.64L35.9287 103.964L38.2247 103.964L38.2247 105.322L35.9287 105.322L35.9287 107.73L34.5287 107.73L34.5287 105.322L32.2327 105.322Z" fill="url(#paint62_linear_131_4388)"/>
<path d="M48.2766 105.322L48.2766 103.964L50.5726 103.964L50.5726 101.64L51.9726 101.64L51.9726 103.964L54.2686 103.964L54.2686 105.322L51.9726 105.322L51.9726 107.73L50.5726 107.73L50.5726 105.322L48.2766 105.322Z" fill="url(#paint63_linear_131_4388)"/>
<path d="M64.3206 105.322L64.3206 103.964L66.6166 103.964L66.6166 101.64L68.0166 101.64L68.0166 103.964L70.3126 103.964L70.3126 105.322L68.0166 105.322L68.0166 107.73L66.6166 107.73L66.6166 105.322L64.3206 105.322Z" fill="url(#paint64_linear_131_4388)"/>
<path d="M80.3645 105.322L80.3645 103.964L82.6605 103.964L82.6605 101.64L84.0605 101.64L84.0605 103.964L86.3565 103.964L86.3565 105.322L84.0605 105.322L84.0605 107.73L82.6605 107.73L82.6605 105.322L80.3645 105.322Z" fill="url(#paint65_linear_131_4388)"/>
<path d="M96.4083 105.322L96.4083 103.964L98.7043 103.964L98.7043 101.64L100.104 101.64L100.104 103.964L102.4 103.964L102.4 105.322L100.104 105.322L100.104 107.73L98.7043 107.73L98.7043 105.322L96.4083 105.322Z" fill="url(#paint66_linear_131_4388)"/>
<path d="M112.452 105.322L112.452 103.964L114.748 103.964L114.748 101.64L116.148 101.64L116.148 103.964L118.444 103.964L118.444 105.322L116.148 105.322L116.148 107.73L114.748 107.73L114.748 105.322L112.452 105.322Z" fill="url(#paint67_linear_131_4388)"/>
<path d="M128.496 105.322L128.496 103.964L130.792 103.964L130.792 101.64L132.192 101.64L132.192 103.964L134.488 103.964L134.488 105.322L132.192 105.322L132.192 107.73L130.792 107.73L130.792 105.322L128.496 105.322Z" fill="url(#paint68_linear_131_4388)"/>
<path d="M144.54 105.322L144.54 103.964L146.836 103.964L146.836 101.64L148.236 101.64L148.236 103.964L150.532 103.964L150.532 105.322L148.236 105.322L148.236 107.73L146.836 107.73L146.836 105.322L144.54 105.322Z" fill="url(#paint69_linear_131_4388)"/>
<path d="M0.144778 122.822L0.144778 121.464L2.44078 121.464L2.44078 119.14L3.84078 119.14L3.84078 121.464L6.13678 121.464L6.13678 122.822L3.84078 122.822L3.84078 125.23L2.44078 125.23L2.44078 122.822L0.144778 122.822Z" fill="url(#paint70_linear_131_4388)"/>
<path d="M16.1887 122.822L16.1887 121.464L18.4847 121.464L18.4847 119.14L19.8847 119.14L19.8847 121.464L22.1807 121.464L22.1807 122.822L19.8847 122.822L19.8847 125.23L18.4847 125.23L18.4847 122.822L16.1887 122.822Z" fill="url(#paint71_linear_131_4388)"/>
<path d="M32.2327 122.822L32.2327 121.464L34.5287 121.464L34.5287 119.14L35.9287 119.14L35.9287 121.464L38.2247 121.464L38.2247 122.822L35.9287 122.822L35.9287 125.23L34.5287 125.23L34.5287 122.822L32.2327 122.822Z" fill="url(#paint72_linear_131_4388)"/>
<path d="M48.2766 122.822L48.2766 121.464L50.5726 121.464L50.5726 119.14L51.9726 119.14L51.9726 121.464L54.2686 121.464L54.2686 122.822L51.9726 122.822L51.9726 125.23L50.5726 125.23L50.5726 122.822L48.2766 122.822Z" fill="url(#paint73_linear_131_4388)"/>
<path d="M64.3206 122.822L64.3206 121.464L66.6166 121.464L66.6166 119.14L68.0166 119.14L68.0166 121.464L70.3126 121.464L70.3126 122.822L68.0166 122.822L68.0166 125.23L66.6166 125.23L66.6166 122.822L64.3206 122.822Z" fill="url(#paint74_linear_131_4388)"/>
<path d="M80.3645 122.822L80.3645 121.464L82.6605 121.464L82.6605 119.14L84.0605 119.14L84.0605 121.464L86.3565 121.464L86.3565 122.822L84.0605 122.822L84.0605 125.23L82.6605 125.23L82.6605 122.822L80.3645 122.822Z" fill="url(#paint75_linear_131_4388)"/>
<path d="M96.4083 122.822L96.4083 121.464L98.7043 121.464L98.7043 119.14L100.104 119.14L100.104 121.464L102.4 121.464L102.4 122.822L100.104 122.822L100.104 125.23L98.7043 125.23L98.7043 122.822L96.4083 122.822Z" fill="url(#paint76_linear_131_4388)"/>
<path d="M112.452 122.822L112.452 121.464L114.748 121.464L114.748 119.14L116.148 119.14L116.148 121.464L118.444 121.464L118.444 122.822L116.148 122.822L116.148 125.23L114.748 125.23L114.748 122.822L112.452 122.822Z" fill="url(#paint77_linear_131_4388)"/>
<path d="M128.496 122.822L128.496 121.464L130.792 121.464L130.792 119.14L132.192 119.14L132.192 121.464L134.488 121.464L134.488 122.822L132.192 122.822L132.192 125.23L130.792 125.23L130.792 122.822L128.496 122.822Z" fill="url(#paint78_linear_131_4388)"/>
<path d="M144.54 122.822L144.54 121.464L146.836 121.464L146.836 119.14L148.236 119.14L148.236 121.464L150.532 121.464L150.532 122.822L148.236 122.822L148.236 125.23L146.836 125.23L146.836 122.822L144.54 122.822Z" fill="url(#paint79_linear_131_4388)"/>
<path d="M0.144778 140.322L0.144778 138.964L2.44078 138.964L2.44078 136.64L3.84078 136.64L3.84078 138.964L6.13678 138.964L6.13678 140.322L3.84078 140.322L3.84078 142.73L2.44078 142.73L2.44078 140.322L0.144778 140.322Z" fill="url(#paint80_linear_131_4388)"/>
<path d="M16.1887 140.322L16.1887 138.964L18.4847 138.964L18.4847 136.64L19.8847 136.64L19.8847 138.964L22.1807 138.964L22.1807 140.322L19.8847 140.322L19.8847 142.73L18.4847 142.73L18.4847 140.322L16.1887 140.322Z" fill="url(#paint81_linear_131_4388)"/>
<path d="M32.2327 140.322L32.2327 138.964L34.5287 138.964L34.5287 136.64L35.9287 136.64L35.9287 138.964L38.2247 138.964L38.2247 140.322L35.9287 140.322L35.9287 142.73L34.5287 142.73L34.5287 140.322L32.2327 140.322Z" fill="url(#paint82_linear_131_4388)"/>
<path d="M48.2766 140.322L48.2766 138.964L50.5726 138.964L50.5726 136.64L51.9726 136.64L51.9726 138.964L54.2686 138.964L54.2686 140.322L51.9726 140.322L51.9726 142.73L50.5726 142.73L50.5726 140.322L48.2766 140.322Z" fill="url(#paint83_linear_131_4388)"/>
<path d="M64.3206 140.322L64.3206 138.964L66.6166 138.964L66.6166 136.64L68.0166 136.64L68.0166 138.964L70.3126 138.964L70.3126 140.322L68.0166 140.322L68.0166 142.73L66.6166 142.73L66.6166 140.322L64.3206 140.322Z" fill="url(#paint84_linear_131_4388)"/>
<path d="M80.3645 140.322L80.3645 138.964L82.6605 138.964L82.6605 136.64L84.0605 136.64L84.0605 138.964L86.3565 138.964L86.3565 140.322L84.0605 140.322L84.0605 142.73L82.6605 142.73L82.6605 140.322L80.3645 140.322Z" fill="url(#paint85_linear_131_4388)"/>
<path d="M96.4083 140.322L96.4083 138.964L98.7043 138.964L98.7043 136.64L100.104 136.64L100.104 138.964L102.4 138.964L102.4 140.322L100.104 140.322L100.104 142.73L98.7043 142.73L98.7043 140.322L96.4083 140.322Z" fill="url(#paint86_linear_131_4388)"/>
<path d="M112.452 140.322L112.452 138.964L114.748 138.964L114.748 136.64L116.148 136.64L116.148 138.964L118.444 138.964L118.444 140.322L116.148 140.322L116.148 142.73L114.748 142.73L114.748 140.322L112.452 140.322Z" fill="url(#paint87_linear_131_4388)"/>
<path d="M128.496 140.322L128.496 138.964L130.792 138.964L130.792 136.64L132.192 136.64L132.192 138.964L134.488 138.964L134.488 140.322L132.192 140.322L132.192 142.73L130.792 142.73L130.792 140.322L128.496 140.322Z" fill="url(#paint88_linear_131_4388)"/>
<path d="M144.54 140.322L144.54 138.964L146.836 138.964L146.836 136.64L148.236 136.64L148.236 138.964L150.532 138.964L150.532 140.322L148.236 140.322L148.236 142.73L146.836 142.73L146.836 140.322L144.54 140.322Z" fill="url(#paint89_linear_131_4388)"/>
</g>
<defs>
<linearGradient id="paint0_linear_131_4388" x1="0" y1="-8.5" x2="6.9487" y2="-7.93033" gradientUnits="userSpaceOnUse">
<stop stop-color="#21B5E0"/>
<stop offset="1" stop-color="#00DEB4"/>
</linearGradient>
<linearGradient id="paint1_linear_131_4388" x1="16.0439" y1="-8.5" x2="22.9926" y2="-7.93033" gradientUnits="userSpaceOnUse">
<stop stop-color="#21B5E0"/>
<stop offset="1" stop-color="#00DEB4"/>
</linearGradient>
<linearGradient id="paint2_linear_131_4388" x1="32.0879" y1="-8.5" x2="39.0366" y2="-7.93033" gradientUnits="userSpaceOnUse">
<stop stop-color="#21B5E0"/>
<stop offset="1" stop-color="#00DEB4"/>
</linearGradient>
<linearGradient id="paint3_linear_131_4388" x1="48.1318" y1="-8.5" x2="55.0805" y2="-7.93033" gradientUnits="userSpaceOnUse">
<stop stop-color="#21B5E0"/>
<stop offset="1" stop-color="#00DEB4"/>
</linearGradient>
<linearGradient id="paint4_linear_131_4388" x1="64.1758" y1="-8.5" x2="71.1245" y2="-7.93033" gradientUnits="userSpaceOnUse">
<stop stop-color="#21B5E0"/>
<stop offset="1" stop-color="#00DEB4"/>
</linearGradient>
<linearGradient id="paint5_linear_131_4388" x1="80.2197" y1="-8.5" x2="87.1684" y2="-7.93033" gradientUnits="userSpaceOnUse">
<stop stop-color="#21B5E0"/>
<stop offset="1" stop-color="#00DEB4"/>
</linearGradient>
<linearGradient id="paint6_linear_131_4388" x1="96.2635" y1="-8.5" x2="103.212" y2="-7.93033" gradientUnits="userSpaceOnUse">
<stop stop-color="#21B5E0"/>
<stop offset="1" stop-color="#00DEB4"/>
</linearGradient>
<linearGradient id="paint7_linear_131_4388" x1="112.307" y1="-8.5" x2="119.256" y2="-7.93033" gradientUnits="userSpaceOnUse">
<stop stop-color="#21B5E0"/>
<stop offset="1" stop-color="#00DEB4"/>
</linearGradient>
<linearGradient id="paint8_linear_131_4388" x1="128.351" y1="-8.5" x2="135.3" y2="-7.93033" gradientUnits="userSpaceOnUse">
<stop stop-color="#21B5E0"/>
<stop offset="1" stop-color="#00DEB4"/>
</linearGradient>
<linearGradient id="paint9_linear_131_4388" x1="144.395" y1="-8.5" x2="151.344" y2="-7.93033" gradientUnits="userSpaceOnUse">
<stop stop-color="#21B5E0"/>
<stop offset="1" stop-color="#00DEB4"/>
</linearGradient>
<linearGradient id="paint10_linear_131_4388" x1="0" y1="9" x2="6.9487" y2="9.56967" gradientUnits="userSpaceOnUse">
<stop stop-color="#21B5E0"/>
<stop offset="1" stop-color="#00DEB4"/>
</linearGradient>
<linearGradient id="paint11_linear_131_4388" x1="16.0439" y1="9" x2="22.9926" y2="9.56967" gradientUnits="userSpaceOnUse">
<stop stop-color="#21B5E0"/>
<stop offset="1" stop-color="#00DEB4"/>
</linearGradient>
<linearGradient id="paint12_linear_131_4388" x1="32.0879" y1="9" x2="39.0366" y2="9.56967" gradientUnits="userSpaceOnUse">
<stop stop-color="#21B5E0"/>
<stop offset="1" stop-color="#00DEB4"/>
</linearGradient>
<linearGradient id="paint13_linear_131_4388" x1="48.1318" y1="9" x2="55.0805" y2="9.56967" gradientUnits="userSpaceOnUse">
<stop stop-color="#21B5E0"/>
<stop offset="1" stop-color="#00DEB4"/>
</linearGradient>
<linearGradient id="paint14_linear_131_4388" x1="64.1758" y1="9" x2="71.1245" y2="9.56967" gradientUnits="userSpaceOnUse">
<stop stop-color="#21B5E0"/>
<stop offset="1" stop-color="#00DEB4"/>
</linearGradient>
<linearGradient id="paint15_linear_131_4388" x1="80.2197" y1="9" x2="87.1684" y2="9.56967" gradientUnits="userSpaceOnUse">
<stop stop-color="#21B5E0"/>
<stop offset="1" stop-color="#00DEB4"/>
</linearGradient>
<linearGradient id="paint16_linear_131_4388" x1="96.2635" y1="9" x2="103.212" y2="9.56967" gradientUnits="userSpaceOnUse">
<stop stop-color="#21B5E0"/>
<stop offset="1" stop-color="#00DEB4"/>
</linearGradient>
<linearGradient id="paint17_linear_131_4388" x1="112.307" y1="9" x2="119.256" y2="9.56967" gradientUnits="userSpaceOnUse">
<stop stop-color="#21B5E0"/>
<stop offset="1" stop-color="#00DEB4"/>
</linearGradient>
<linearGradient id="paint18_linear_131_4388" x1="128.351" y1="9" x2="135.3" y2="9.56967" gradientUnits="userSpaceOnUse">
<stop stop-color="#21B5E0"/>
<stop offset="1" stop-color="#00DEB4"/>
</linearGradient>
<linearGradient id="paint19_linear_131_4388" x1="144.395" y1="9" x2="151.344" y2="9.56967" gradientUnits="userSpaceOnUse">
<stop stop-color="#21B5E0"/>
<stop offset="1" stop-color="#00DEB4"/>
</linearGradient>
<linearGradient id="paint20_linear_131_4388" x1="0" y1="26.5" x2="6.9487" y2="27.0697" gradientUnits="userSpaceOnUse">
<stop stop-color="#21B5E0"/>
<stop offset="1" stop-color="#00DEB4"/>
</linearGradient>
<linearGradient id="paint21_linear_131_4388" x1="16.0439" y1="26.5" x2="22.9926" y2="27.0697" gradientUnits="userSpaceOnUse">
<stop stop-color="#21B5E0"/>
<stop offset="1" stop-color="#00DEB4"/>
</linearGradient>
<linearGradient id="paint22_linear_131_4388" x1="32.0879" y1="26.5" x2="39.0366" y2="27.0697" gradientUnits="userSpaceOnUse">
<stop stop-color="#21B5E0"/>
<stop offset="1" stop-color="#00DEB4"/>
</linearGradient>
<linearGradient id="paint23_linear_131_4388" x1="48.1318" y1="26.5" x2="55.0805" y2="27.0697" gradientUnits="userSpaceOnUse">
<stop stop-color="#21B5E0"/>
<stop offset="1" stop-color="#00DEB4"/>
</linearGradient>
<linearGradient id="paint24_linear_131_4388" x1="64.1758" y1="26.5" x2="71.1245" y2="27.0697" gradientUnits="userSpaceOnUse">
<stop stop-color="#21B5E0"/>
<stop offset="1" stop-color="#00DEB4"/>
</linearGradient>
<linearGradient id="paint25_linear_131_4388" x1="80.2197" y1="26.5" x2="87.1684" y2="27.0697" gradientUnits="userSpaceOnUse">
<stop stop-color="#21B5E0"/>
<stop offset="1" stop-color="#00DEB4"/>
</linearGradient>
<linearGradient id="paint26_linear_131_4388" x1="96.2635" y1="26.5" x2="103.212" y2="27.0697" gradientUnits="userSpaceOnUse">
<stop stop-color="#21B5E0"/>
<stop offset="1" stop-color="#00DEB4"/>
</linearGradient>
<linearGradient id="paint27_linear_131_4388" x1="112.307" y1="26.5" x2="119.256" y2="27.0697" gradientUnits="userSpaceOnUse">
<stop stop-color="#21B5E0"/>
<stop offset="1" stop-color="#00DEB4"/>
</linearGradient>
<linearGradient id="paint28_linear_131_4388" x1="128.351" y1="26.5" x2="135.3" y2="27.0697" gradientUnits="userSpaceOnUse">
<stop stop-color="#21B5E0"/>
<stop offset="1" stop-color="#00DEB4"/>
</linearGradient>
<linearGradient id="paint29_linear_131_4388" x1="144.395" y1="26.5" x2="151.344" y2="27.0697" gradientUnits="userSpaceOnUse">
<stop stop-color="#21B5E0"/>
<stop offset="1" stop-color="#00DEB4"/>
</linearGradient>
<linearGradient id="paint30_linear_131_4388" x1="0" y1="44" x2="6.9487" y2="44.5697" gradientUnits="userSpaceOnUse">
<stop stop-color="#21B5E0"/>
<stop offset="1" stop-color="#00DEB4"/>
</linearGradient>
<linearGradient id="paint31_linear_131_4388" x1="16.0439" y1="44" x2="22.9926" y2="44.5697" gradientUnits="userSpaceOnUse">
<stop stop-color="#21B5E0"/>
<stop offset="1" stop-color="#00DEB4"/>
</linearGradient>
<linearGradient id="paint32_linear_131_4388" x1="32.0879" y1="44" x2="39.0366" y2="44.5697" gradientUnits="userSpaceOnUse">
<stop stop-color="#21B5E0"/>
<stop offset="1" stop-color="#00DEB4"/>
</linearGradient>
<linearGradient id="paint33_linear_131_4388" x1="48.1318" y1="44" x2="55.0805" y2="44.5697" gradientUnits="userSpaceOnUse">
<stop stop-color="#21B5E0"/>
<stop offset="1" stop-color="#00DEB4"/>
</linearGradient>
<linearGradient id="paint34_linear_131_4388" x1="64.1758" y1="44" x2="71.1245" y2="44.5697" gradientUnits="userSpaceOnUse">
<stop stop-color="#21B5E0"/>
<stop offset="1" stop-color="#00DEB4"/>
</linearGradient>
<linearGradient id="paint35_linear_131_4388" x1="80.2197" y1="44" x2="87.1684" y2="44.5697" gradientUnits="userSpaceOnUse">
<stop stop-color="#21B5E0"/>
<stop offset="1" stop-color="#00DEB4"/>
</linearGradient>
<linearGradient id="paint36_linear_131_4388" x1="96.2635" y1="44" x2="103.212" y2="44.5697" gradientUnits="userSpaceOnUse">
<stop stop-color="#21B5E0"/>
<stop offset="1" stop-color="#00DEB4"/>
</linearGradient>
<linearGradient id="paint37_linear_131_4388" x1="112.307" y1="44" x2="119.256" y2="44.5697" gradientUnits="userSpaceOnUse">
<stop stop-color="#21B5E0"/>
<stop offset="1" stop-color="#00DEB4"/>
</linearGradient>
<linearGradient id="paint38_linear_131_4388" x1="128.351" y1="44" x2="135.3" y2="44.5697" gradientUnits="userSpaceOnUse">
<stop stop-color="#21B5E0"/>
<stop offset="1" stop-color="#00DEB4"/>
</linearGradient>
<linearGradient id="paint39_linear_131_4388" x1="144.395" y1="44" x2="151.344" y2="44.5697" gradientUnits="userSpaceOnUse">
<stop stop-color="#21B5E0"/>
<stop offset="1" stop-color="#00DEB4"/>
</linearGradient>
<linearGradient id="paint40_linear_131_4388" x1="0" y1="61.5" x2="6.9487" y2="62.0697" gradientUnits="userSpaceOnUse">
<stop stop-color="#21B5E0"/>
<stop offset="1" stop-color="#00DEB4"/>
</linearGradient>
<linearGradient id="paint41_linear_131_4388" x1="16.0439" y1="61.5" x2="22.9926" y2="62.0697" gradientUnits="userSpaceOnUse">
<stop stop-color="#21B5E0"/>
<stop offset="1" stop-color="#00DEB4"/>
</linearGradient>
<linearGradient id="paint42_linear_131_4388" x1="32.0879" y1="61.5" x2="39.0366" y2="62.0697" gradientUnits="userSpaceOnUse">
<stop stop-color="#21B5E0"/>
<stop offset="1" stop-color="#00DEB4"/>
</linearGradient>
<linearGradient id="paint43_linear_131_4388" x1="48.1318" y1="61.5" x2="55.0805" y2="62.0697" gradientUnits="userSpaceOnUse">
<stop stop-color="#21B5E0"/>
<stop offset="1" stop-color="#00DEB4"/>
</linearGradient>
<linearGradient id="paint44_linear_131_4388" x1="64.1758" y1="61.5" x2="71.1245" y2="62.0697" gradientUnits="userSpaceOnUse">
<stop stop-color="#21B5E0"/>
<stop offset="1" stop-color="#00DEB4"/>
</linearGradient>
<linearGradient id="paint45_linear_131_4388" x1="80.2197" y1="61.5" x2="87.1684" y2="62.0697" gradientUnits="userSpaceOnUse">
<stop stop-color="#21B5E0"/>
<stop offset="1" stop-color="#00DEB4"/>
</linearGradient>
<linearGradient id="paint46_linear_131_4388" x1="96.2635" y1="61.5" x2="103.212" y2="62.0697" gradientUnits="userSpaceOnUse">
<stop stop-color="#21B5E0"/>
<stop offset="1" stop-color="#00DEB4"/>
</linearGradient>
<linearGradient id="paint47_linear_131_4388" x1="112.307" y1="61.5" x2="119.256" y2="62.0697" gradientUnits="userSpaceOnUse">
<stop stop-color="#21B5E0"/>
<stop offset="1" stop-color="#00DEB4"/>
</linearGradient>
<linearGradient id="paint48_linear_131_4388" x1="128.351" y1="61.5" x2="135.3" y2="62.0697" gradientUnits="userSpaceOnUse">
<stop stop-color="#21B5E0"/>
<stop offset="1" stop-color="#00DEB4"/>
</linearGradient>
<linearGradient id="paint49_linear_131_4388" x1="144.395" y1="61.5" x2="151.344" y2="62.0697" gradientUnits="userSpaceOnUse">
<stop stop-color="#21B5E0"/>
<stop offset="1" stop-color="#00DEB4"/>
</linearGradient>
<linearGradient id="paint50_linear_131_4388" x1="0" y1="79" x2="6.9487" y2="79.5697" gradientUnits="userSpaceOnUse">
<stop stop-color="#21B5E0"/>
<stop offset="1" stop-color="#00DEB4"/>
</linearGradient>
<linearGradient id="paint51_linear_131_4388" x1="16.0439" y1="79" x2="22.9926" y2="79.5697" gradientUnits="userSpaceOnUse">
<stop stop-color="#21B5E0"/>
<stop offset="1" stop-color="#00DEB4"/>
</linearGradient>
<linearGradient id="paint52_linear_131_4388" x1="32.0879" y1="79" x2="39.0366" y2="79.5697" gradientUnits="userSpaceOnUse">
<stop stop-color="#21B5E0"/>
<stop offset="1" stop-color="#00DEB4"/>
</linearGradient>
<linearGradient id="paint53_linear_131_4388" x1="48.1318" y1="79" x2="55.0805" y2="79.5697" gradientUnits="userSpaceOnUse">
<stop stop-color="#21B5E0"/>
<stop offset="1" stop-color="#00DEB4"/>
</linearGradient>
<linearGradient id="paint54_linear_131_4388" x1="64.1758" y1="79" x2="71.1245" y2="79.5697" gradientUnits="userSpaceOnUse">
<stop stop-color="#21B5E0"/>
<stop offset="1" stop-color="#00DEB4"/>
</linearGradient>
<linearGradient id="paint55_linear_131_4388" x1="80.2197" y1="79" x2="87.1684" y2="79.5697" gradientUnits="userSpaceOnUse">
<stop stop-color="#21B5E0"/>
<stop offset="1" stop-color="#00DEB4"/>
</linearGradient>
<linearGradient id="paint56_linear_131_4388" x1="96.2635" y1="79" x2="103.212" y2="79.5697" gradientUnits="userSpaceOnUse">
<stop stop-color="#21B5E0"/>
<stop offset="1" stop-color="#00DEB4"/>
</linearGradient>
<linearGradient id="paint57_linear_131_4388" x1="112.307" y1="79" x2="119.256" y2="79.5697" gradientUnits="userSpaceOnUse">
<stop stop-color="#21B5E0"/>
<stop offset="1" stop-color="#00DEB4"/>
</linearGradient>
<linearGradient id="paint58_linear_131_4388" x1="128.351" y1="79" x2="135.3" y2="79.5697" gradientUnits="userSpaceOnUse">
<stop stop-color="#21B5E0"/>
<stop offset="1" stop-color="#00DEB4"/>
</linearGradient>
<linearGradient id="paint59_linear_131_4388" x1="144.395" y1="79" x2="151.344" y2="79.5697" gradientUnits="userSpaceOnUse">
<stop stop-color="#21B5E0"/>
<stop offset="1" stop-color="#00DEB4"/>
</linearGradient>
<linearGradient id="paint60_linear_131_4388" x1="0" y1="96.5" x2="6.9487" y2="97.0697" gradientUnits="userSpaceOnUse">
<stop stop-color="#21B5E0"/>
<stop offset="1" stop-color="#00DEB4"/>
</linearGradient>
<linearGradient id="paint61_linear_131_4388" x1="16.0439" y1="96.5" x2="22.9926" y2="97.0697" gradientUnits="userSpaceOnUse">
<stop stop-color="#21B5E0"/>
<stop offset="1" stop-color="#00DEB4"/>
</linearGradient>
<linearGradient id="paint62_linear_131_4388" x1="32.0879" y1="96.5" x2="39.0366" y2="97.0697" gradientUnits="userSpaceOnUse">
<stop stop-color="#21B5E0"/>
<stop offset="1" stop-color="#00DEB4"/>
</linearGradient>
<linearGradient id="paint63_linear_131_4388" x1="48.1318" y1="96.5" x2="55.0805" y2="97.0697" gradientUnits="userSpaceOnUse">
<stop stop-color="#21B5E0"/>
<stop offset="1" stop-color="#00DEB4"/>
</linearGradient>
<linearGradient id="paint64_linear_131_4388" x1="64.1758" y1="96.5" x2="71.1245" y2="97.0697" gradientUnits="userSpaceOnUse">
<stop stop-color="#21B5E0"/>
<stop offset="1" stop-color="#00DEB4"/>
</linearGradient>
<linearGradient id="paint65_linear_131_4388" x1="80.2197" y1="96.5" x2="87.1684" y2="97.0697" gradientUnits="userSpaceOnUse">
<stop stop-color="#21B5E0"/>
<stop offset="1" stop-color="#00DEB4"/>
</linearGradient>
<linearGradient id="paint66_linear_131_4388" x1="96.2635" y1="96.5" x2="103.212" y2="97.0697" gradientUnits="userSpaceOnUse">
<stop stop-color="#21B5E0"/>
<stop offset="1" stop-color="#00DEB4"/>
</linearGradient>
<linearGradient id="paint67_linear_131_4388" x1="112.307" y1="96.5" x2="119.256" y2="97.0697" gradientUnits="userSpaceOnUse">
<stop stop-color="#21B5E0"/>
<stop offset="1" stop-color="#00DEB4"/>
</linearGradient>
<linearGradient id="paint68_linear_131_4388" x1="128.351" y1="96.5" x2="135.3" y2="97.0697" gradientUnits="userSpaceOnUse">
<stop stop-color="#21B5E0"/>
<stop offset="1" stop-color="#00DEB4"/>
</linearGradient>
<linearGradient id="paint69_linear_131_4388" x1="144.395" y1="96.5" x2="151.344" y2="97.0697" gradientUnits="userSpaceOnUse">
<stop stop-color="#21B5E0"/>
<stop offset="1" stop-color="#00DEB4"/>
</linearGradient>
<linearGradient id="paint70_linear_131_4388" x1="0" y1="114" x2="6.9487" y2="114.57" gradientUnits="userSpaceOnUse">
<stop stop-color="#21B5E0"/>
<stop offset="1" stop-color="#00DEB4"/>
</linearGradient>
<linearGradient id="paint71_linear_131_4388" x1="16.0439" y1="114" x2="22.9926" y2="114.57" gradientUnits="userSpaceOnUse">
<stop stop-color="#21B5E0"/>
<stop offset="1" stop-color="#00DEB4"/>
</linearGradient>
<linearGradient id="paint72_linear_131_4388" x1="32.0879" y1="114" x2="39.0366" y2="114.57" gradientUnits="userSpaceOnUse">
<stop stop-color="#21B5E0"/>
<stop offset="1" stop-color="#00DEB4"/>
</linearGradient>
<linearGradient id="paint73_linear_131_4388" x1="48.1318" y1="114" x2="55.0805" y2="114.57" gradientUnits="userSpaceOnUse">
<stop stop-color="#21B5E0"/>
<stop offset="1" stop-color="#00DEB4"/>
</linearGradient>
<linearGradient id="paint74_linear_131_4388" x1="64.1758" y1="114" x2="71.1245" y2="114.57" gradientUnits="userSpaceOnUse">
<stop stop-color="#21B5E0"/>
<stop offset="1" stop-color="#00DEB4"/>
</linearGradient>
<linearGradient id="paint75_linear_131_4388" x1="80.2197" y1="114" x2="87.1684" y2="114.57" gradientUnits="userSpaceOnUse">
<stop stop-color="#21B5E0"/>
<stop offset="1" stop-color="#00DEB4"/>
</linearGradient>
<linearGradient id="paint76_linear_131_4388" x1="96.2635" y1="114" x2="103.212" y2="114.57" gradientUnits="userSpaceOnUse">
<stop stop-color="#21B5E0"/>
<stop offset="1" stop-color="#00DEB4"/>
</linearGradient>
<linearGradient id="paint77_linear_131_4388" x1="112.307" y1="114" x2="119.256" y2="114.57" gradientUnits="userSpaceOnUse">
<stop stop-color="#21B5E0"/>
<stop offset="1" stop-color="#00DEB4"/>
</linearGradient>
<linearGradient id="paint78_linear_131_4388" x1="128.351" y1="114" x2="135.3" y2="114.57" gradientUnits="userSpaceOnUse">
<stop stop-color="#21B5E0"/>
<stop offset="1" stop-color="#00DEB4"/>
</linearGradient>
<linearGradient id="paint79_linear_131_4388" x1="144.395" y1="114" x2="151.344" y2="114.57" gradientUnits="userSpaceOnUse">
<stop stop-color="#21B5E0"/>
<stop offset="1" stop-color="#00DEB4"/>
</linearGradient>
<linearGradient id="paint80_linear_131_4388" x1="0" y1="131.5" x2="6.9487" y2="132.07" gradientUnits="userSpaceOnUse">
<stop stop-color="#21B5E0"/>
<stop offset="1" stop-color="#00DEB4"/>
</linearGradient>
<linearGradient id="paint81_linear_131_4388" x1="16.0439" y1="131.5" x2="22.9926" y2="132.07" gradientUnits="userSpaceOnUse">
<stop stop-color="#21B5E0"/>
<stop offset="1" stop-color="#00DEB4"/>
</linearGradient>
<linearGradient id="paint82_linear_131_4388" x1="32.0879" y1="131.5" x2="39.0366" y2="132.07" gradientUnits="userSpaceOnUse">
<stop stop-color="#21B5E0"/>
<stop offset="1" stop-color="#00DEB4"/>
</linearGradient>
<linearGradient id="paint83_linear_131_4388" x1="48.1318" y1="131.5" x2="55.0805" y2="132.07" gradientUnits="userSpaceOnUse">
<stop stop-color="#21B5E0"/>
<stop offset="1" stop-color="#00DEB4"/>
</linearGradient>
<linearGradient id="paint84_linear_131_4388" x1="64.1758" y1="131.5" x2="71.1245" y2="132.07" gradientUnits="userSpaceOnUse">
<stop stop-color="#21B5E0"/>
<stop offset="1" stop-color="#00DEB4"/>
</linearGradient>
<linearGradient id="paint85_linear_131_4388" x1="80.2197" y1="131.5" x2="87.1684" y2="132.07" gradientUnits="userSpaceOnUse">
<stop stop-color="#21B5E0"/>
<stop offset="1" stop-color="#00DEB4"/>
</linearGradient>
<linearGradient id="paint86_linear_131_4388" x1="96.2635" y1="131.5" x2="103.212" y2="132.07" gradientUnits="userSpaceOnUse">
<stop stop-color="#21B5E0"/>
<stop offset="1" stop-color="#00DEB4"/>
</linearGradient>
<linearGradient id="paint87_linear_131_4388" x1="112.307" y1="131.5" x2="119.256" y2="132.07" gradientUnits="userSpaceOnUse">
<stop stop-color="#21B5E0"/>
<stop offset="1" stop-color="#00DEB4"/>
</linearGradient>
<linearGradient id="paint88_linear_131_4388" x1="128.351" y1="131.5" x2="135.3" y2="132.07" gradientUnits="userSpaceOnUse">
<stop stop-color="#21B5E0"/>
<stop offset="1" stop-color="#00DEB4"/>
</linearGradient>
<linearGradient id="paint89_linear_131_4388" x1="144.395" y1="131.5" x2="151.344" y2="132.07" gradientUnits="userSpaceOnUse">
<stop stop-color="#21B5E0"/>
<stop offset="1" stop-color="#00DEB4"/>
</linearGradient>
</defs>
</svg>
