<svg width="644" height="615" viewBox="0 0 644 615" fill="none" xmlns="http://www.w3.org/2000/svg">
<rect width="713.123" height="108.613" rx="54.3066" transform="matrix(0.744782 0.667308 -0.744782 0.667308 80.9442 65.75)" fill="url(#paint0_linear_145_2158)" fill-opacity="0.08"/>
<rect width="426.386" height="108.613" rx="54.3066" transform="matrix(0.744782 0.667308 -0.744782 0.667308 261.017 0.125)" fill="url(#paint1_linear_145_2158)" fill-opacity="0.08"/>
<g clip-path="url(#clip0_145_2158)">
<path d="M410.808 237.644H643.472" stroke="#FDFDF3" stroke-width="1.04691" stroke-miterlimit="10"/>
<path d="M638.792 214.137H415.487C412.903 214.137 410.808 216.232 410.808 218.817V404.809C410.808 407.394 412.903 409.489 415.487 409.489H638.792C641.377 409.489 643.472 407.394 643.472 404.809V218.817C643.472 216.232 641.377 214.137 638.792 214.137Z" stroke="#FDFDF3" stroke-width="1.04691" stroke-miterlimit="10"/>
<path d="M433.75 226.128C433.752 226.778 433.561 227.414 433.2 227.955C432.84 228.497 432.327 228.919 431.727 229.169C431.127 229.418 430.466 229.484 429.828 229.358C429.19 229.231 428.604 228.918 428.144 228.459C427.684 227.999 427.371 227.413 427.245 226.775C427.119 226.137 427.184 225.476 427.434 224.876C427.684 224.275 428.106 223.762 428.647 223.402C429.189 223.042 429.825 222.851 430.475 222.853C431.344 222.853 432.177 223.198 432.791 223.812C433.405 224.426 433.75 225.259 433.75 226.128V226.128Z" stroke="#FDFDF3" stroke-width="1.04691" stroke-miterlimit="10"/>
<path d="M446.501 226.128C446.503 226.778 446.311 227.415 445.951 227.956C445.59 228.498 445.077 228.92 444.476 229.17C443.875 229.419 443.213 229.484 442.575 229.357C441.937 229.23 441.351 228.916 440.892 228.455C440.432 227.995 440.12 227.408 439.995 226.769C439.869 226.131 439.936 225.47 440.187 224.869C440.438 224.269 440.862 223.757 441.405 223.398C441.947 223.039 442.584 222.849 443.235 222.853C444.101 222.857 444.931 223.204 445.542 223.818C446.154 224.431 446.499 225.261 446.501 226.128V226.128Z" stroke="#FDFDF3" stroke-width="1.04691" stroke-miterlimit="10"/>
<path d="M455.968 229.411C457.782 229.411 459.252 227.941 459.252 226.127C459.252 224.314 457.782 222.843 455.968 222.843C454.154 222.843 452.684 224.314 452.684 226.127C452.684 227.941 454.154 229.411 455.968 229.411Z" stroke="#FDFDF3" stroke-width="1.04691" stroke-miterlimit="10"/>
<path d="M626.238 250.368H428.721V391.539H626.238V250.368Z" fill="#1C4848"/>
<path d="M513.78 338.371C513.78 338.371 486.793 335.633 481.281 371.961L459.529 396.121L502.927 400.702L513.78 338.371Z" fill="#123434"/>
<path d="M551.827 338.371H509.262C508.344 338.367 507.444 338.626 506.668 339.117C505.893 339.609 505.274 340.312 504.886 341.145C487.975 378.064 484.753 422.222 484.118 437.872C484.054 439.474 484.606 441.039 485.661 442.246C486.717 443.453 488.195 444.209 489.791 444.359C504.815 445.719 544.785 448.914 560.668 450.175C561.473 450.241 562.283 450.133 563.043 449.858C563.803 449.583 564.494 449.147 565.071 448.581C565.647 448.015 566.095 447.331 566.383 446.576C566.672 445.821 566.795 445.013 566.743 444.207C565.571 425.416 563.227 371.254 562.896 349.26C562.851 346.355 561.665 343.584 559.594 341.546C557.523 339.509 554.733 338.368 551.827 338.371V338.371Z" fill="#123434"/>
<path d="M495.911 367.559C495.911 367.559 487.652 392.148 484.36 437.827C484.243 439.401 484.752 440.957 485.775 442.158C486.799 443.359 488.255 444.108 489.827 444.243L560.65 450.175" stroke="#0C2929" stroke-width="0.948483" stroke-miterlimit="10"/>
<path d="M551.827 338.371L571.432 477.887C571.68 479.643 572.6 481.235 573.999 482.325C575.399 483.415 577.167 483.919 578.93 483.73L601.613 481.278C602.529 481.178 603.414 480.893 604.216 480.442C605.019 479.991 605.722 479.382 606.283 478.653C606.845 477.923 607.253 477.088 607.484 476.197C607.715 475.306 607.763 474.377 607.626 473.467L591.44 366.181C590.124 358.403 586.096 351.342 580.07 346.251C574.044 341.16 566.409 338.368 558.52 338.371H551.827Z" fill="#123434"/>
<path d="M566.743 444.189L556.149 369.161" stroke="#0C2929" stroke-width="0.948483" stroke-miterlimit="10"/>
<path d="M511.042 308.744C515.213 308.744 518.594 305.363 518.594 301.192C518.594 297.021 515.213 293.64 511.042 293.64C506.871 293.64 503.49 297.021 503.49 301.192C503.49 305.363 506.871 308.744 511.042 308.744Z" fill="#DD7C7C"/>
<path d="M518.908 312.986L518.523 339.901C518.46 347.471 523.659 348.035 531.113 348.035C537.466 348.035 542.915 346.173 543.702 339.865L545.098 310.775L518.908 312.986Z" fill="#EF9C98"/>
<path d="M518.585 334.809L538.817 319.661L518.791 319.419L518.585 334.809Z" fill="#DD7C7C"/>
<path d="M531.488 323.723H520.93C519.049 323.723 517.187 323.345 515.456 322.611C513.724 321.877 512.158 320.802 510.85 319.45C509.542 318.099 508.519 316.498 507.842 314.744C507.165 312.989 506.847 311.116 506.908 309.236L507.624 287.341C507.782 282.562 509.791 278.032 513.228 274.708C516.664 271.383 521.258 269.525 526.039 269.525C536.213 269.525 546.244 277.775 546.244 287.949L545.098 310.775C544.926 314.268 543.417 317.561 540.883 319.971C538.349 322.382 534.985 323.725 531.488 323.723V323.723Z" fill="#EF9C98"/>
<path d="M541.483 301.988L544.982 312.842L545.349 306.4L541.483 301.988Z" fill="#0C2929"/>
<path d="M517.44 299.545L516.232 307.384H518.657" stroke="#0C2929" stroke-width="0.984275" stroke-linecap="round" stroke-linejoin="round"/>
<path d="M526.952 293.461C526.952 293.461 522.872 292.844 522.782 295.027C522.782 295.027 522.782 296.503 526.308 296.951C529.833 297.398 530.782 297.094 531.157 295.716C531.533 294.338 528.867 293.55 526.952 293.461Z" fill="#0C2929"/>
<path d="M511.346 293.371C511.346 293.371 514.729 293.058 514.926 295.161C514.926 295.161 515.051 296.557 512.089 296.745C509.127 296.933 508.179 296.396 507.928 295.259C507.66 293.908 509.736 293.3 511.346 293.371Z" fill="#0C2929"/>
<path d="M515.803 309.594H527.211C527.211 309.594 527.211 313.585 520.608 313.594C519.449 313.662 518.307 313.286 517.415 312.544C516.523 311.801 515.946 310.746 515.803 309.594Z" fill="white"/>
<path d="M522.782 299.546C523.487 299.112 524.299 298.882 525.126 298.882C525.954 298.882 526.766 299.112 527.471 299.546" stroke="#0C2929" stroke-width="0.984275" stroke-linecap="round" stroke-linejoin="round"/>
<path d="M509.754 299.546C509.754 299.546 511.096 298.087 513.789 299.546" stroke="#0C2929" stroke-width="0.984275" stroke-linecap="round" stroke-linejoin="round"/>
<path d="M549.536 338.371H513.745C513.745 338.371 509.718 350.898 527.39 350.826C548.185 350.799 549.536 338.371 549.536 338.371Z" fill="#EF9C98"/>
<path d="M551.344 281.462C551.344 281.462 551.344 274.536 544.669 273.248C543.04 272.934 541.349 272.603 539.944 272.353C539.9 271.419 539.611 270.514 539.105 269.729C538.599 268.943 537.895 268.305 537.063 267.879C535.581 267.217 533.958 266.932 532.339 267.049C530.72 267.166 529.155 267.682 527.784 268.55C526.388 265.669 524.079 263.047 520.277 263.181C511.892 263.441 501.37 270.34 506.049 281.229C509.414 289.068 525.252 283.77 528.5 283.019C531.748 282.267 533.314 282.276 532.598 286.598C532.043 289.971 537 290.544 539.103 290.642L540.418 299.134C540.418 299.134 548.472 300.083 547.201 299.134C545.555 297.935 548.355 289.184 550.136 286.75C551.263 285.202 551.344 281.462 551.344 281.462Z" fill="#0C2929"/>
<path d="M547.738 308.744C551.909 308.744 555.29 305.363 555.29 301.192C555.29 297.021 551.909 293.64 547.738 293.64C543.567 293.64 540.186 297.021 540.186 301.192C540.186 305.363 543.567 308.744 547.738 308.744Z" fill="#EF9C98"/>
<path d="M545.098 303.438C545.098 303.438 545.098 297.962 550.342 298.821" stroke="#0C2929" stroke-width="0.984275" stroke-linecap="round" stroke-linejoin="round"/>
<path d="M131.417 253.866H318.196" stroke="#FDFDF3" stroke-width="1.04691" stroke-miterlimit="10"/>
<path d="M314.026 232.919H135.586C133.284 232.919 131.417 234.786 131.417 237.089V434.642C131.417 436.944 133.284 438.811 135.586 438.811H314.026C316.329 438.811 318.196 436.944 318.196 434.642V237.089C318.196 234.786 316.329 232.919 314.026 232.919Z" stroke="#FDFDF3" stroke-width="1.04691" stroke-miterlimit="10"/>
<path d="M148.946 246.538C150.562 246.538 151.872 245.228 151.872 243.612C151.872 241.996 150.562 240.686 148.946 240.686C147.33 240.686 146.02 241.996 146.02 243.612C146.02 245.228 147.33 246.538 148.946 246.538Z" stroke="#FDFDF3" stroke-width="1.04691" stroke-miterlimit="10"/>
<path d="M160.31 246.538C161.926 246.538 163.236 245.228 163.236 243.612C163.236 241.996 161.926 240.686 160.31 240.686C158.694 240.686 157.384 241.996 157.384 243.612C157.384 245.228 158.694 246.538 160.31 246.538Z" stroke="#FDFDF3" stroke-width="1.04691" stroke-miterlimit="10"/>
<path d="M171.665 246.538C173.281 246.538 174.591 245.228 174.591 243.612C174.591 241.996 173.281 240.686 171.665 240.686C170.049 240.686 168.739 241.996 168.739 243.612C168.739 245.228 170.049 246.538 171.665 246.538Z" stroke="#FDFDF3" stroke-width="1.04691" stroke-miterlimit="10"/>
<path d="M371.812 199.946H278.315C275.913 199.946 273.966 201.893 273.966 204.295V271.735C273.966 274.137 275.913 276.084 278.315 276.084H371.812C374.214 276.084 376.161 274.137 376.161 271.735V204.295C376.161 201.893 374.214 199.946 371.812 199.946Z" fill="#447270"/>
<path d="M371.812 199.946H278.315C275.913 199.946 273.966 201.893 273.966 204.295V271.735C273.966 274.137 275.913 276.084 278.315 276.084H371.812C374.214 276.084 376.161 274.137 376.161 271.735V204.295C376.161 201.893 374.214 199.946 371.812 199.946Z" stroke="#FDFDF3" stroke-width="1.04691" stroke-miterlimit="10"/>
<path d="M348.431 254.34C348.488 254.436 348.577 254.51 348.682 254.549C348.787 254.587 348.902 254.588 349.007 254.551C349.113 254.514 349.202 254.442 349.261 254.346C349.319 254.25 349.342 254.138 349.326 254.027V244.542V226.646C349.326 225.747 348.969 224.884 348.333 224.248C347.697 223.612 346.834 223.255 345.935 223.255H304.542C303.642 223.255 302.78 223.612 302.144 224.248C301.508 224.884 301.15 225.747 301.15 226.646V245.848C301.15 246.749 301.507 247.612 302.143 248.25C302.779 248.887 303.641 249.246 304.542 249.249H344.047L348.431 254.34Z" fill="#1C4848"/>
<path d="M317.069 235.943C317.071 236.371 316.945 236.791 316.709 237.148C316.472 237.505 316.135 237.784 315.74 237.949C315.345 238.115 314.91 238.159 314.49 238.078C314.069 237.996 313.683 237.791 313.379 237.489C313.074 237.188 312.867 236.803 312.781 236.383C312.696 235.964 312.737 235.528 312.899 235.132C313.062 234.735 313.338 234.396 313.693 234.157C314.048 233.917 314.466 233.788 314.894 233.787C315.468 233.787 316.018 234.013 316.426 234.417C316.833 234.821 317.064 235.37 317.069 235.943V235.943Z" stroke="#FDFDF3" stroke-width="1.04691" stroke-miterlimit="10"/>
<path d="M326.392 235.917C326.394 236.345 326.269 236.765 326.032 237.122C325.795 237.479 325.457 237.758 325.062 237.924C324.666 238.089 324.231 238.133 323.81 238.051C323.389 237.968 323.003 237.762 322.699 237.46C322.395 237.158 322.188 236.772 322.104 236.351C322.02 235.931 322.062 235.495 322.226 235.099C322.389 234.703 322.667 234.364 323.023 234.126C323.379 233.887 323.798 233.76 324.227 233.76C324.799 233.763 325.347 233.99 325.753 234.394C326.158 234.798 326.388 235.345 326.392 235.917V235.917Z" stroke="#FDFDF3" stroke-width="1.04691" stroke-miterlimit="10"/>
<path d="M335.68 235.89C335.68 236.317 335.554 236.736 335.316 237.092C335.079 237.448 334.741 237.725 334.346 237.889C333.951 238.053 333.516 238.097 333.096 238.014C332.676 237.931 332.29 237.726 331.987 237.424C331.684 237.122 331.477 236.737 331.392 236.317C331.308 235.898 331.349 235.463 331.512 235.067C331.674 234.671 331.951 234.332 332.306 234.093C332.66 233.854 333.078 233.726 333.506 233.724C333.791 233.723 334.074 233.778 334.338 233.886C334.601 233.995 334.841 234.154 335.043 234.355C335.245 234.556 335.405 234.796 335.515 235.059C335.624 235.322 335.68 235.604 335.68 235.89Z" stroke="#FDFDF3" stroke-width="1.04691" stroke-miterlimit="10"/>
<path d="M582.528 476.437H526.898H516.85V432.396H582.528V443.402V476.437Z" stroke="#FDFDF3" stroke-width="1.04691" stroke-linecap="round" stroke-linejoin="round"/>
<path d="M582.528 443.858H596.155V487.909H530.477V476.437" stroke="#FDFDF3" stroke-width="1.04691" stroke-linecap="round" stroke-linejoin="round"/>
<path d="M516.85 432.396L549.689 453.593L582.528 432.396" stroke="#FDFDF3" stroke-width="1.04691" stroke-linecap="round" stroke-linejoin="round"/>
<path d="M240.528 337.887H98.2198C95.8329 337.887 93.8979 339.822 93.8979 342.209V386.573C93.8979 388.96 95.8329 390.895 98.2198 390.895H240.528C242.915 390.895 244.85 388.96 244.85 386.573V342.209C244.85 339.822 242.915 337.887 240.528 337.887Z" fill="#447270"/>
<path d="M240.528 337.887H98.2198C95.8329 337.887 93.8979 339.822 93.8979 342.209V386.573C93.8979 388.96 95.8329 390.895 98.2198 390.895H240.528C242.915 390.895 244.85 388.96 244.85 386.573V342.209C244.85 339.822 242.915 337.887 240.528 337.887Z" stroke="#FDFDF3" stroke-width="1.04691" stroke-miterlimit="10"/>
<path d="M138.915 366.574C140.818 358.609 135.904 350.61 127.94 348.707C119.976 346.804 111.976 351.717 110.073 359.681C108.17 367.646 113.083 375.645 121.048 377.548C129.012 379.451 137.011 374.538 138.915 366.574Z" fill="#1C4848"/>
<path d="M152.981 358.844H230.193" stroke="#FDFDF3" stroke-width="1.04691" stroke-miterlimit="10"/>
<path d="M152.981 369.679H181.919" stroke="#FDFDF3" stroke-width="1.04691" stroke-miterlimit="10"/>
<path d="M351.518 423.725C351.518 423.725 392.876 416.048 436.622 421.13C449.57 422.634 450.563 433.899 448.577 446.059L435.88 529.275L336.316 528.434L351.518 423.725Z" fill="#082525"/>
<path d="M319.565 378.162C319.771 377.625 328.808 353.394 330.303 341.198C330.43 340.256 330.185 339.301 329.62 338.537C329.056 337.772 328.216 337.256 327.278 337.1C326.406 336.984 325.521 337.193 324.793 337.688C324.065 338.184 323.545 338.93 323.332 339.784L320.46 350.352L321.847 339.149C321.914 338.665 321.884 338.172 321.758 337.7C321.631 337.228 321.411 336.786 321.111 336.401C320.811 336.015 320.436 335.694 320.009 335.456C319.582 335.218 319.112 335.068 318.626 335.015C317.788 334.953 316.954 335.188 316.272 335.679C315.59 336.17 315.102 336.885 314.894 337.699C313.704 342.021 311.619 349.555 311.619 349.332C311.619 349.108 311.942 343.695 312.183 339.722C312.224 339.202 312.154 338.679 311.979 338.188C311.804 337.697 311.526 337.248 311.166 336.871C310.805 336.495 310.369 336.198 309.886 336.002C309.403 335.805 308.884 335.713 308.362 335.731V335.731C307.502 335.787 306.688 336.143 306.062 336.736C305.437 337.329 305.038 338.123 304.935 338.979L303.459 349.743L302.072 343.551C301.977 343.092 301.787 342.658 301.514 342.277C301.242 341.895 300.893 341.575 300.489 341.335C300.086 341.096 299.637 340.944 299.172 340.888C298.706 340.832 298.234 340.874 297.786 341.01V341.01C296.974 341.283 296.29 341.845 295.864 342.589C295.439 343.333 295.301 344.207 295.477 345.046L297.795 354.513C297.795 354.513 292.256 376.426 292.489 376.059C292.721 375.692 319.565 378.162 319.565 378.162Z" fill="#EF9C98"/>
<path d="M321.811 361.6C320.683 358.226 318.347 355.39 315.252 353.636C314.688 353.314 314.044 353.158 313.395 353.187C312.746 353.215 312.118 353.427 311.584 353.797C310.795 354.35 310.248 355.184 310.055 356.127C309.862 357.071 310.037 358.052 310.546 358.871L313.024 362.861C313.024 362.861 309.248 359.837 302.654 365.76" stroke="#DD7C7C" stroke-width="0.715836" stroke-linecap="round" stroke-linejoin="round"/>
<path d="M287.63 383.871L290.359 374.637H321.212L318.017 387.54L287.63 383.871Z" fill="#F6EDED"/>
<path d="M305.195 440.735L322.742 381.536L285.402 380.847L270.02 433.031L305.195 440.735Z" fill="#082525"/>
<path d="M378.532 420.352C325.337 424.002 271.005 429.666 271.005 429.666L268.123 439.402C266.928 443.305 267.072 447.497 268.531 451.309C269.99 455.122 272.681 458.339 276.177 460.447C279.36 462.331 283.064 463.143 286.744 462.765L357.71 458.183L378.532 420.352Z" fill="#082525"/>
<path d="M346.409 458.918L349.398 440.735L337.139 459.508L346.409 458.918Z" fill="#1C4848"/>
<path d="M493.71 528.228C496.226 527.31 498.498 525.83 500.353 523.9C502.209 521.969 503.598 519.64 504.416 517.091C505.234 514.541 505.458 511.839 505.071 509.189C504.684 506.54 503.696 504.014 502.184 501.805L452.764 429.55C451.415 427.568 449.669 425.887 447.637 424.612C445.605 423.338 443.332 422.499 440.96 422.146C438.588 421.794 436.168 421.937 433.854 422.566C431.54 423.195 429.381 424.296 427.513 425.801V425.801C420.516 431.447 413.572 441.496 418.565 448.967L471.358 521.58C475.877 528.255 486.167 531.002 493.728 528.228H493.71Z" fill="#082525"/>
<path d="M442.814 482.334L447.002 456.188" stroke="#1C4848" stroke-width="1.71801" stroke-miterlimit="10"/>
<path d="M379.49 493.322L383.23 525.123C383.359 526.192 383.868 527.178 384.666 527.901C385.463 528.624 386.494 529.036 387.57 529.06L402.405 529.302C403.491 529.313 404.543 528.928 405.367 528.22C406.19 527.512 406.727 526.529 406.879 525.454L411.228 493.805L379.49 493.322Z" fill="#123434"/>
<path d="M379.665 488.853L411.14 489.369C411.776 489.38 412.381 489.642 412.824 490.099C413.266 490.556 413.509 491.17 413.498 491.806L413.459 494.195L377.189 493.6L377.228 491.211C377.238 490.575 377.501 489.97 377.958 489.527C378.415 489.085 379.029 488.842 379.665 488.853Z" fill="#F6EDED"/>
<path d="M383.957 484.137L407.022 484.515C407.573 484.524 408.097 484.751 408.48 485.147C408.863 485.543 409.073 486.074 409.064 486.625L409.02 489.309L381.804 488.862L381.848 486.178C381.857 485.628 382.084 485.103 382.48 484.72C382.875 484.338 383.407 484.128 383.957 484.137Z" fill="#F6EDED"/>
<path d="M421.921 502.655C420.292 502.655 410.718 496.463 410.718 496.463L409.984 502.467C409.984 502.467 407.023 508.382 393.645 503.845C392.91 503.593 392.109 503.608 391.383 503.886C390.657 504.163 390.052 504.687 389.672 505.366C389.371 505.91 389.229 506.528 389.264 507.148C389.299 507.769 389.509 508.367 389.869 508.874C389.305 508.914 388.76 509.101 388.29 509.416C387.82 509.731 387.44 510.164 387.189 510.671C386.937 511.179 386.823 511.743 386.857 512.308C386.891 512.873 387.072 513.42 387.382 513.894C387.57 514.189 387.82 514.52 388.089 514.86C388.034 514.925 387.983 514.994 387.937 515.066C387.643 515.585 387.498 516.175 387.517 516.772C387.535 517.368 387.718 517.948 388.044 518.448C388.564 519.227 389.163 519.95 389.834 520.604C389.689 521.058 389.645 521.537 389.707 522.009C389.769 522.481 389.934 522.933 390.191 523.334C392.169 526.34 397.922 528.774 413.456 529.597H428.668L421.921 502.655Z" fill="#EF9C98"/>
<path d="M389.869 508.874C389.869 508.874 394.128 512.158 403.452 512.829" stroke="#DD7C7C" stroke-width="0.715836" stroke-linecap="round" stroke-linejoin="round"/>
<path d="M388.089 514.86C388.089 514.86 392.563 518.725 401.269 519.047" stroke="#DD7C7C" stroke-width="0.715836" stroke-linecap="round" stroke-linejoin="round"/>
<path d="M389.834 520.649C389.834 520.649 392.59 523.003 398.227 523.549" stroke="#DD7C7C" stroke-width="0.715836" stroke-linecap="round" stroke-linejoin="round"/>
<path d="M438.242 529.213L428.605 529.302L419.621 499.792L432.891 499.085L438.242 529.213Z" fill="#F6EDED"/>
<path d="M487.518 493.215L425.768 493.68L435.987 529.597L490.391 529.114L487.518 493.215Z" fill="#082525"/>
<path d="M403.068 342.218C403.068 342.218 428.363 342.218 430.672 363.971C431.155 368.534 433.482 372.534 436.372 376.006C443.369 384.408 446.286 395.781 436.712 413.095C436.712 413.095 392.867 420.352 365.227 406.017C365.227 406.017 358.596 382.457 371.607 371.925C376.922 367.621 376.931 360.937 376.931 360.937L403.068 342.218Z" fill="#0C2929"/>
<path d="M389.807 376.301C389.737 377.36 389.459 378.395 388.989 379.347C388.518 380.298 387.864 381.147 387.064 381.845C386.264 382.543 385.334 383.075 384.327 383.412C383.321 383.749 382.257 383.884 381.199 383.809C379.085 383.583 377.146 382.53 375.805 380.881C374.464 379.232 373.83 377.119 374.04 375.004C374.11 373.945 374.388 372.909 374.858 371.958C375.329 371.007 375.983 370.158 376.783 369.46C377.583 368.762 378.513 368.23 379.52 367.893C380.526 367.556 381.589 367.421 382.648 367.496C384.762 367.722 386.701 368.774 388.042 370.424C389.383 372.073 390.017 374.186 389.807 376.301V376.301Z" fill="#DD7C7C"/>
<path d="M389.216 398.903L386.308 417.748C385.279 424.36 388.679 428.485 394.996 429.38C400.365 430.159 406.718 428.485 407.38 422.589L410.566 392.711L389.216 398.903Z" fill="#EF9C98"/>
<path d="M378.532 420.352L394.361 419.126H407.443L418.807 419.833C418.807 419.833 418.261 434.794 391.686 432.754C373.575 431.367 378.532 420.352 378.532 420.352Z" fill="#EF9C98"/>
<path d="M386.308 417.757L412.32 397.884L389.476 396.962L386.308 417.757Z" fill="#DD7C7C"/>
<path d="M394.021 405.266C383.284 403.628 375.723 393.499 376.805 384.372L379.49 362.897C380.85 351.453 390.755 343.104 401.86 344.017C413.241 344.956 423.639 355.399 422.619 367.147L420.274 384.435C418.494 397.758 407.049 406.339 394.021 405.266Z" fill="#EF9C98"/>
<path d="M388.643 381.008L387.194 386.224L389.842 386.734" stroke="#0C2929" stroke-width="1.11849" stroke-linecap="round" stroke-linejoin="round"/>
<path d="M401.591 372.364C401.591 372.364 397.117 371.281 396.777 373.178C396.777 373.178 396.58 374.467 400.499 375.343C404.419 376.22 405.492 376.068 406.038 374.914C406.584 373.76 403.721 372.713 401.591 372.364Z" fill="#0C2929"/>
<path d="M383.812 370.136C383.812 370.136 387.614 370.315 387.641 372.149C387.641 372.149 387.641 373.393 384.313 373.16C380.984 372.927 379.991 372.328 379.839 371.299C379.704 370.136 382.022 369.885 383.812 370.136Z" fill="#0C2929"/>
<path d="M385.252 378.377C385.196 378.753 385.031 379.105 384.776 379.387C384.522 379.67 384.19 379.871 383.821 379.966C383.453 380.061 383.065 380.044 382.705 379.919C382.346 379.794 382.032 379.566 381.802 379.264C381.571 378.961 381.436 378.597 381.411 378.217C381.387 377.838 381.475 377.459 381.665 377.13C381.855 376.8 382.138 376.534 382.478 376.364C382.819 376.194 383.201 376.129 383.579 376.176C384.091 376.249 384.554 376.521 384.867 376.933C385.18 377.345 385.319 377.864 385.252 378.377V378.377Z" fill="#0C2929"/>
<path d="M400.759 380.247C400.702 380.621 400.535 380.969 400.281 381.249C400.026 381.529 399.695 381.728 399.329 381.82C398.962 381.913 398.576 381.895 398.22 381.77C397.863 381.645 397.551 381.417 397.323 381.115C397.095 380.814 396.961 380.452 396.937 380.074C396.914 379.697 397.002 379.321 397.191 378.993C397.38 378.666 397.662 378.401 398 378.233C398.339 378.064 398.719 377.999 399.095 378.046C399.606 378.119 400.068 378.392 400.38 378.804C400.692 379.216 400.828 379.735 400.759 380.247V380.247Z" fill="#0C2929"/>
<path d="M386.308 389.517L397.108 391.396C397.108 391.396 396.589 395.432 390.845 394.286C386.308 393.365 386.308 389.517 386.308 389.517Z" fill="#F6EDED"/>
<path d="M390.057 355.229C390.057 355.229 391.525 366.387 420.597 373.178L423.039 374.073C423.039 374.073 432.068 351.211 409.286 342.925C404.562 341.207 394.853 341.628 389.977 342.925C383.015 344.822 373.423 350.737 371.982 365.367C371.982 365.412 386.308 364.74 390.057 355.229Z" fill="#0C2929"/>
<path d="M412.812 369.107C412.812 370.002 415.317 383.54 415.317 383.54L426.699 370.673L412.812 369.107Z" fill="#0C2929"/>
<path d="M430.475 383.611C430.312 385.859 429.267 387.952 427.567 389.432C425.867 390.912 423.651 391.66 421.402 391.512C420.293 391.405 419.217 391.079 418.235 390.554C417.253 390.029 416.384 389.314 415.68 388.451C414.975 387.589 414.448 386.595 414.13 385.528C413.811 384.461 413.707 383.341 413.823 382.233C413.986 379.985 415.031 377.893 416.731 376.413C418.431 374.933 420.647 374.185 422.896 374.332C424.004 374.441 425.08 374.767 426.062 375.293C427.043 375.819 427.911 376.533 428.615 377.396C429.32 378.258 429.847 379.251 430.166 380.318C430.485 381.385 430.59 382.504 430.475 383.611V383.611Z" fill="#EF9C98"/>
<path d="M419.013 385.24C419.013 385.24 419.559 378.976 425.276 380.462" stroke="#0C2929" stroke-width="1.1006" stroke-linecap="round" stroke-linejoin="round"/>
<path d="M371.982 365.411L377.235 365.59L378.622 359.962L371.982 365.411Z" fill="#0C2929"/>
<path d="M436.552 340.434C437.924 331.585 432.088 323.335 423.517 322.006C414.947 320.678 406.887 326.775 405.515 335.624C404.144 344.473 409.98 352.723 418.551 354.051C427.121 355.379 435.181 349.283 436.552 340.434Z" fill="#0C2929"/>
<path d="M428.175 354.441C427.989 354.441 427.805 354.401 427.635 354.324C427.465 354.247 427.314 354.134 427.191 353.994C417.948 343.48 404.759 342.209 404.624 342.2C404.454 342.186 404.287 342.138 404.135 342.059C403.982 341.98 403.847 341.871 403.737 341.74C403.626 341.609 403.543 341.457 403.491 341.293C403.439 341.13 403.42 340.958 403.434 340.787C403.449 340.616 403.497 340.449 403.576 340.297C403.655 340.145 403.764 340.009 403.895 339.899C404.026 339.788 404.178 339.705 404.341 339.653C404.505 339.601 404.677 339.582 404.848 339.597C405.43 339.65 419.219 340.957 429.16 352.276C429.325 352.465 429.432 352.697 429.468 352.945C429.504 353.194 429.469 353.447 429.365 353.675C429.261 353.904 429.094 354.097 428.883 354.233C428.672 354.369 428.426 354.441 428.175 354.441V354.441Z" fill="white"/>
<path d="M378.854 529.427H309.74V520.917H371.812C372.619 520.918 373.411 521.141 374.099 521.563C374.788 521.984 375.346 522.588 375.714 523.307L378.854 529.427Z" fill="#1D6969"/>
<path d="M170.832 456.716L207.188 529.427H325.301L287.719 456.743C287.173 455.688 286.348 454.804 285.333 454.187C284.318 453.57 283.153 453.244 281.966 453.244H173.007C172.595 453.239 172.189 453.34 171.828 453.537C171.467 453.734 171.163 454.021 170.944 454.369C170.726 454.718 170.601 455.117 170.581 455.528C170.562 455.939 170.648 456.348 170.832 456.716Z" fill="#0C2929"/>
<path d="M249.154 489.743C251.838 494.307 250.594 499.926 246.469 502.27C242.344 504.615 236.877 502.87 234.247 498.307C231.616 493.743 232.815 488.124 236.931 485.779C241.047 483.435 246.523 485.18 249.154 489.743Z" fill="#F2F6FB"/>
<path d="M154.529 529.302H579.619" stroke="#0C2929" stroke-width="0.841107" stroke-miterlimit="10"/>
</g>
<defs>
<linearGradient id="paint0_linear_145_2158" x1="0" y1="0" x2="508.442" y2="381.442" gradientUnits="userSpaceOnUse">
<stop stop-color="#21B5E0" stop-opacity="0"/>
<stop offset="1" stop-color="#00DEB4"/>
</linearGradient>
<linearGradient id="paint1_linear_145_2158" x1="0" y1="0" x2="395.523" y2="177.418" gradientUnits="userSpaceOnUse">
<stop stop-color="#21B5E0" stop-opacity="0"/>
<stop offset="1" stop-color="#00DEB4"/>
</linearGradient>
<clipPath id="clip0_145_2158">
<rect width="550.63" height="330.305" fill="white" transform="translate(93.3701 199.417)"/>
</clipPath>
</defs>
</svg>
